  0
SECTION
  2
HEADER
  9
$ACADVER
  1
AC1032
  9
$ACADMAINTVER
 90
      329
  9
$DWGCODEPAGE
  3
ANSI_1252
  9
$REQUIREDVERSIONS
160
                 0
  9
$INSBASE
 10
0.0
 20
0.0
 30
0.0
  9
$EXTMIN
 10
1.000000000000000E+20
 20
1.000000000000000E+20
 30
1.000000000000000E+20
  9
$EXTMAX
 10
-1.000000000000000E+20
 20
-1.000000000000000E+20
 30
-1.000000000000000E+20
  9
$LIMMIN
 10
0.0
 20
0.0
  9
$LIMMAX
 10
12.0
 20
9.0
  9
$ORTHOMODE
 70
     0
  9
$REGENMODE
 70
     1
  9
$FILLMODE
 70
     1
  9
$QTEXTMODE
 70
     0
  9
$MIRRTEXT
 70
     0
  9
$LTSCALE
 40
1.0
  9
$ATTMODE
 70
     1
  9
$TEXTSIZE
 40
0.2
  9
$TRACEWID
 40
0.05
  9
$TEXTSTYLE
  7
Standard
  9
$CLAYER
  8
0
  9
$CELTYPE
  6
ByLayer
  9
$CECOLOR
 62
   256
  9
$CELTSCALE
 40
1.0
  9
$DISPSILH
 70
     0
  9
$DIMSCALE
 40
1.0
  9
$DIMASZ
 40
0.18
  9
$DIMEXO
 40
0.0625
  9
$DIMDLI
 40
0.38
  9
$DIMRND
 40
0.0
  9
$DIMDLE
 40
0.0
  9
$DIMEXE
 40
0.18
  9
$DIMTP
 40
0.0
  9
$DIMTM
 40
0.0
  9
$DIMTXT
 40
0.18
  9
$DIMCEN
 40
0.09
  9
$DIMTSZ
 40
0.0
  9
$DIMTOL
 70
     0
  9
$DIMLIM
 70
     0
  9
$DIMTIH
 70
     1
  9
$DIMTOH
 70
     1
  9
$DIMSE1
 70
     0
  9
$DIMSE2
 70
     0
  9
$DIMTAD
 70
     0
  9
$DIMZIN
 70
     0
  9
$DIMBLK
  1

  9
$DIMASO
 70
     1
  9
$DIMSHO
 70
     1
  9
$DIMPOST
  1

  9
$DIMAPOST
  1

  9
$DIMALT
 70
     0
  9
$DIMALTD
 70
     2
  9
$DIMALTF
 40
25.4
  9
$DIMLFAC
 40
1.0
  9
$DIMTOFL
 70
     0
  9
$DIMTVP
 40
0.0
  9
$DIMTIX
 70
     0
  9
$DIMSOXD
 70
     0
  9
$DIMSAH
 70
     0
  9
$DIMBLK1
  1

  9
$DIMBLK2
  1

  9
$DIMSTYLE
  2
Standard
  9
$DIMCLRD
 70
     0
  9
$DIMCLRE
 70
     0
  9
$DIMCLRT
 70
     0
  9
$DIMTFAC
 40
1.0
  9
$DIMGAP
 40
0.09
  9
$DIMJUST
 70
     0
  9
$DIMSD1
 70
     0
  9
$DIMSD2
 70
     0
  9
$DIMTOLJ
 70
     1
  9
$DIMTZIN
 70
     0
  9
$DIMALTZ
 70
     0
  9
$DIMALTTZ
 70
     0
  9
$DIMUPT
 70
     0
  9
$DIMDEC
 70
     4
  9
$DIMTDEC
 70
     4
  9
$DIMALTU
 70
     2
  9
$DIMALTTD
 70
     2
  9
$DIMTXSTY
  7
Standard
  9
$DIMAUNIT
 70
     0
  9
$DIMADEC
 70
     0
  9
$DIMALTRND
 40
0.0
  9
$DIMAZIN
 70
     0
  9
$DIMDSEP
 70
    46
  9
$DIMATFIT
 70
     3
  9
$DIMFRAC
 70
     0
  9
$DIMLDRBLK
  1

  9
$DIMLUNIT
 70
     2
  9
$DIMLWD
 70
    -2
  9
$DIMLWE
 70
    -2
  9
$DIMTMOVE
 70
     0
  9
$DIMFXL
 40
1.0
  9
$DIMFXLON
 70
     0
  9
$DIMJOGANG
 40
0.7853981633974483
  9
$DIMTFILL
 70
     0
  9
$DIMTFILLCLR
 70
     0
  9
$DIMARCSYM
 70
     0
  9
$DIMLTYPE
  6

  9
$DIMLTEX1
  6

  9
$DIMLTEX2
  6

  9
$DIMTXTDIRECTION
 70
     0
  9
$LUNITS
 70
     2
  9
$LUPREC
 70
     4
  9
$SKETCHINC
 40
0.1
  9
$FILLETRAD
 40
0.0
  9
$AUNITS
 70
     0
  9
$AUPREC
 70
     0
  9
$MENU
  1
.
  9
$ELEVATION
 40
0.0
  9
$PELEVATION
 40
0.0
  9
$THICKNESS
 40
0.0
  9
$LIMCHECK
 70
     0
  9
$CHAMFERA
 40
0.0
  9
$CHAMFERB
 40
0.0
  9
$CHAMFERC
 40
0.0
  9
$CHAMFERD
 40
0.0
  9
$SKPOLY
 70
     0
  9
$TDCREATE
 40
2460875.663587963
  9
$TDUCREATE
 40
2460875.580254630
  9
$TDUPDATE
 40
2460875.663587963
  9
$TDUUPDATE
 40
2460875.580254630
  9
$TDINDWG
 40
0.0000000000
  9
$TDUSRTIMER
 40
0.0000000000
  9
$USRTIMER
 70
     1
  9
$ANGBASE
 50
0.0
  9
$ANGDIR
 70
     0
  9
$PDMODE
 70
     0
  9
$PDSIZE
 40
0.0
  9
$PLINEWID
 40
0.0
  9
$SPLFRAME
 70
     0
  9
$SPLINETYPE
 70
     6
  9
$SPLINESEGS
 70
     8
  9
$HANDSEED
  5
84
  9
$SURFTAB1
 70
     6
  9
$SURFTAB2
 70
     6
  9
$SURFTYPE
 70
     6
  9
$SURFU
 70
     6
  9
$SURFV
 70
     6
  9
$UCSBASE
  2

  9
$UCSNAME
  2

  9
$UCSORG
 10
0.0
 20
0.0
 30
0.0
  9
$UCSXDIR
 10
1.0
 20
0.0
 30
0.0
  9
$UCSYDIR
 10
0.0
 20
1.0
 30
0.0
  9
$UCSORTHOREF
  2

  9
$UCSORTHOVIEW
 70
     0
  9
$UCSORGTOP
 10
0.0
 20
0.0
 30
0.0
  9
$UCSORGBOTTOM
 10
0.0
 20
0.0
 30
0.0
  9
$UCSORGLEFT
 10
0.0
 20
0.0
 30
0.0
  9
$UCSORGRIGHT
 10
0.0
 20
0.0
 30
0.0
  9
$UCSORGFRONT
 10
0.0
 20
0.0
 30
0.0
  9
$UCSORGBACK
 10
0.0
 20
0.0
 30
0.0
  9
$PUCSBASE
  2

  9
$PUCSNAME
  2

  9
$PUCSORG
 10
0.0
 20
0.0
 30
0.0
  9
$PUCSXDIR
 10
1.0
 20
0.0
 30
0.0
  9
$PUCSYDIR
 10
0.0
 20
1.0
 30
0.0
  9
$PUCSORTHOREF
  2

  9
$PUCSORTHOVIEW
 70
     0
  9
$PUCSORGTOP
 10
0.0
 20
0.0
 30
0.0
  9
$PUCSORGBOTTOM
 10
0.0
 20
0.0
 30
0.0
  9
$PUCSORGLEFT
 10
0.0
 20
0.0
 30
0.0
  9
$PUCSORGRIGHT
 10
0.0
 20
0.0
 30
0.0
  9
$PUCSORGFRONT
 10
0.0
 20
0.0
 30
0.0
  9
$PUCSORGBACK
 10
0.0
 20
0.0
 30
0.0
  9
$USERI1
 70
     0
  9
$USERI2
 70
     0
  9
$USERI3
 70
     0
  9
$USERI4
 70
     0
  9
$USERI5
 70
     0
  9
$USERR1
 40
0.0
  9
$USERR2
 40
0.0
  9
$USERR3
 40
0.0
  9
$USERR4
 40
0.0
  9
$USERR5
 40
0.0
  9
$WORLDVIEW
 70
     1
  9
$SHADEDGE
 70
     3
  9
$SHADEDIF
 70
    70
  9
$TILEMODE
 70
     1
  9
$MAXACTVP
 70
    64
  9
$PINSBASE
 10
0.0
 20
0.0
 30
0.0
  9
$PLIMCHECK
 70
     0
  9
$PEXTMIN
 10
1.000000000000000E+20
 20
1.000000000000000E+20
 30
1.000000000000000E+20
  9
$PEXTMAX
 10
-1.000000000000000E+20
 20
-1.000000000000000E+20
 30
-1.000000000000000E+20
  9
$PLIMMIN
 10
0.0
 20
0.0
  9
$PLIMMAX
 10
12.0
 20
9.0
  9
$UNITMODE
 70
     0
  9
$VISRETAIN
 70
     1
  9
$PLINEGEN
 70
     0
  9
$PSLTSCALE
 70
     1
  9
$TREEDEPTH
 70
  3020
  9
$CMLSTYLE
  2
Standard
  9
$CMLJUST
 70
     0
  9
$CMLSCALE
 40
1.0
  9
$PROXYGRAPHICS
 70
     1
  9
$MEASUREMENT
 70
     0
  9
$CELWEIGHT
370
    -1
  9
$ENDCAPS
280
     0
  9
$JOINSTYLE
280
     0
  9
$LWDISPLAY
290
     1
  9
$INSUNITS
 70
     4
  9
$HYPERLINKBASE
  1

  9
$STYLESHEET
  1

  9
$XEDIT
290
     1
  9
$CEPSNTYPE
380
     0
  9
$PSTYLEMODE
290
     1
  9
$FINGERPRINTGUID
  2
{433DE269-2915-6F46-AFAB-CB33CE05BA08}
  9
$VERSIONGUID
  2
{0349036F-DE43-5B4B-A808-8D0CC0BB576E}
  9
$EXTNAMES
290
     1
  9
$PSVPSCALE
 40
0.0
  9
$OLESTARTUP
290
     0
  9
$SORTENTS
280
   127
  9
$INDEXCTL
280
     0
  9
$HIDETEXT
280
     1
  9
$XCLIPFRAME
280
     2
  9
$HALOGAP
280
     0
  9
$OBSCOLOR
 70
   257
  9
$OBSLTYPE
280
     0
  9
$INTERSECTIONDISPLAY
280
     0
  9
$INTERSECTIONCOLOR
 70
   257
  9
$DIMASSOC
280
     2
  9
$PROJECTNAME
  1

  9
$CAMERADISPLAY
290
     0
  9
$LENSLENGTH
 40
50.0
  9
$CAMERAHEIGHT
 40
0.0
  9
$STEPSPERSEC
 40
2.0
  9
$STEPSIZE
 40
6.0
  9
$3DDWFPREC
 40
2.0
  9
$PSOLWIDTH
 40
0.25
  9
$PSOLHEIGHT
 40
4.0
  9
$LOFTANG1
 40
1.570796326794896
  9
$LOFTANG2
 40
1.570796326794896
  9
$LOFTMAG1
 40
0.0
  9
$LOFTMAG2
 40
0.0
  9
$LOFTPARAM
 70
     7
  9
$LOFTNORMALS
280
     1
  9
$LATITUDE
 40
37.795
  9
$LONGITUDE
 40
-122.394
  9
$NORTHDIRECTION
 40
0.0
  9
$TIMEZONE
 70
 -8000
  9
$LIGHTGLYPHDISPLAY
280
     1
  9
$TILEMODELIGHTSYNCH
280
     1
  9
$CMATERIAL
347
11
  9
$SOLIDHIST
280
     0
  9
$SHOWHIST
280
     1
  9
$DWFFRAME
280
     2
  9
$DGNFRAME
280
     0
  9
$REALWORLDSCALE
290
     1
  9
$INTERFERECOLOR
 62
     1
  9
$INTERFEREOBJVS
345
33
  9
$INTERFEREVPVS
346
30
  9
$CSHADOW
280
     0
  9
$SHADOWPLANELOCATION
 40
0.0
  0
ENDSEC
  0
SECTION
  2
CLASSES
  0
CLASS
  1
ACDBDICTIONARYWDFLT
  2
AcDbDictionaryWithDefault
  3
ObjectDBX Classes
 90
        0
 91
        1
280
     0
281
     0
  0
CLASS
  1
MATERIAL
  2
AcDbMaterial
  3
ObjectDBX Classes
 90
     1153
 91
        3
280
     0
281
     0
  0
CLASS
  1
VISUALSTYLE
  2
AcDbVisualStyle
  3
ObjectDBX Classes
 90
     4095
 91
       24
280
     0
281
     0
  0
CLASS
  1
SCALE
  2
AcDbScale
  3
ObjectDBX Classes
 90
     1153
 91
       17
280
     0
281
     0
  0
CLASS
  1
TABLESTYLE
  2
AcDbTableStyle
  3
ObjectDBX Classes
 90
     4095
 91
        1
280
     0
281
     0
  0
CLASS
  1
MLEADERSTYLE
  2
AcDbMLeaderStyle
  3
ACDB_MLEADERSTYLE_CLASS
 90
     4095
 91
        1
280
     0
281
     0
  0
CLASS
  1
ACDBSECTIONVIEWSTYLE
  2
AcDbSectionViewStyle
  3
ObjectDBX Classes
 90
     1025
 91
        1
280
     0
281
     0
  0
CLASS
  1
ACDBDETAILVIEWSTYLE
  2
AcDbDetailViewStyle
  3
ObjectDBX Classes
 90
     1025
 91
        1
280
     0
281
     0
  0
CLASS
  1
DICTIONARYVAR
  2
AcDbDictionaryVar
  3
ObjectDBX Classes
 90
        0
 91
        5
280
     0
281
     0
  0
CLASS
  1
CELLSTYLEMAP
  2
AcDbCellStyleMap
  3
ObjectDBX Classes
 90
     1152
 91
        1
280
     0
281
     0
  0
ENDSEC
  0
SECTION
  2
TABLES
  0
TABLE
  2
VPORT
  5
8
330
0
100
AcDbSymbolTable
 70
     1
  0
VPORT
  5
57
330
8
100
AcDbSymbolTableRecord
100
AcDbViewportTableRecord
  2
*Active
 70
     0
 10
0.0
 20
0.0
 11
1.0
 21
1.0
 12
0.0
 22
0.0
 13
0.0
 23
0.0
 14
1.0
 24
1.0
 15
0.0
 25
0.0
 16
0.0
 26
0.0
 36
1.0
 17
148.5000119155985
 27
-209.9999940135198
 37
0.0
 40
428.3999877875802
 41
0.7071429340423608
 42
50.0
 43
0.0
 44
0.0
 50
0.0
 51
0.0
 71
     0
 72
   100
 73
     1
 74
     1
 75
     0
 76
     0
 77
     0
 78
     0
281
     0
 65
     1
110
0.0
120
0.0
130
0.0
111
1.0
121
0.0
131
0.0
112
0.0
122
1.0
132
0.0
 79
     0
146
0.0
 60
     3
 61
     5
292
     1
282
     1
141
0.0
142
0.0
 63
   250
421
  3355443
  0
ENDTAB
  0
TABLE
  2
LTYPE
  5
5
330
0
100
AcDbSymbolTable
 70
     1
  0
LTYPE
  5
5B
330
5
100
AcDbSymbolTableRecord
100
AcDbLinetypeTableRecord
  2
ByBlock
 70
     0
  3

 72
    65
 73
     0
 40
0.0
  0
LTYPE
  5
5C
330
5
100
AcDbSymbolTableRecord
100
AcDbLinetypeTableRecord
  2
ByLayer
 70
     0
  3

 72
    65
 73
     0
 40
0.0
  0
LTYPE
  5
5D
330
5
100
AcDbSymbolTableRecord
100
AcDbLinetypeTableRecord
  2
Continuous
 70
     0
  3
Solid line
 72
    65
 73
     0
 40
0.0
  0
ENDTAB
  0
TABLE
  2
LAYER
  5
2
330
0
100
AcDbSymbolTable
 70
     2
  0
LAYER
  5
54
330
2
100
AcDbSymbolTableRecord
100
AcDbLayerTableRecord
  2
0
 70
     0
 62
     7
  6
Continuous
370
    -3
390
F
347
21
348
0
  0
LAYER
  5
78
330
2
100
AcDbSymbolTableRecord
100
AcDbLayerTableRecord
  2
Calque 1
 70
     0
 62
     7
  6
Continuous
370
     0
390
F
347
21
348
0
  0
ENDTAB
  0
TABLE
  2
STYLE
  5
3
330
0
100
AcDbSymbolTable
 70
     2
  0
STYLE
  5
55
330
3
100
AcDbSymbolTableRecord
100
AcDbTextStyleTableRecord
  2
Standard
 70
     0
 40
0.0
 41
1.0
 50
0.0
 71
     0
 42
0.2
  3
txt
  4

  0
STYLE
  5
5A
330
3
100
AcDbSymbolTableRecord
100
AcDbTextStyleTableRecord
  2
Annotative
 70
     0
 40
0.0
 41
1.0
 50
0.0
 71
     0
 42
0.2
  3
txt
  4

1001
AcadAnnotative
1000
AnnotativeData
1002
{
1070
     1
1070
     1
1002
}
  0
ENDTAB
  0
TABLE
  2
VIEW
  5
6
330
0
100
AcDbSymbolTable
 70
     0
  0
ENDTAB
  0
TABLE
  2
UCS
  5
7
330
0
100
AcDbSymbolTable
 70
     0
  0
ENDTAB
  0
TABLE
  2
APPID
  5
9
330
0
100
AcDbSymbolTable
 70
     2
  0
APPID
  5
56
330
9
100
AcDbSymbolTableRecord
100
AcDbRegAppTableRecord
  2
ACAD
 70
     0
  0
APPID
  5
5E
330
9
100
AcDbSymbolTableRecord
100
AcDbRegAppTableRecord
  2
AcadAnnotative
 70
     0
  0
ENDTAB
  0
TABLE
  2
DIMSTYLE
  5
A
330
0
100
AcDbSymbolTable
 70
     2
100
AcDbDimStyleTable
 71
     0
  0
DIMSTYLE
105
58
330
A
100
AcDbSymbolTableRecord
100
AcDbDimStyleTableRecord
  2
Standard
 70
     0
340
55
  0
DIMSTYLE
105
59
330
A
100
AcDbSymbolTableRecord
100
AcDbDimStyleTableRecord
  2
Annotative
 70
     0
340
55
1001
AcadAnnotative
1000
AnnotativeData
1002
{
1070
     1
1070
     1
1002
}
  0
ENDTAB
  0
TABLE
  2
BLOCK_RECORD
  5
1
330
0
100
AcDbSymbolTable
 70
     1
  0
BLOCK_RECORD
  5
70
330
1
100
AcDbSymbolTableRecord
100
AcDbBlockTableRecord
  2
*Model_Space
340
73
 70
     0
280
     1
281
     0
  0
BLOCK_RECORD
  5
6C
330
1
100
AcDbSymbolTableRecord
100
AcDbBlockTableRecord
  2
*Paper_Space
340
6F
 70
     0
280
     1
281
     0
  0
BLOCK_RECORD
  5
74
330
1
100
AcDbSymbolTableRecord
100
AcDbBlockTableRecord
  2
*Paper_Space0
340
77
 70
     0
280
     1
281
     0
  0
ENDTAB
  0
ENDSEC
  0
SECTION
  2
BLOCKS
  0
BLOCK
  5
71
330
70
100
AcDbEntity
  8
0
100
AcDbBlockBegin
  2
*Model_Space
 70
     0
 10
0.0
 20
0.0
 30
0.0
  3
*Model_Space
  1

  0
ENDBLK
  5
72
330
70
100
AcDbEntity
  8
0
100
AcDbBlockEnd
  0
BLOCK
  5
6D
330
6C
100
AcDbEntity
 67
     1
  8
0
100
AcDbBlockBegin
  2
*Paper_Space
 70
     0
 10
0.0
 20
0.0
 30
0.0
  3
*Paper_Space
  1

  0
ENDBLK
  5
6E
330
6C
100
AcDbEntity
 67
     1
  8
0
100
AcDbBlockEnd
  0
BLOCK
  5
75
330
74
100
AcDbEntity
 67
     1
  8
0
100
AcDbBlockBegin
  2
*Paper_Space0
 70
     0
 10
0.0
 20
0.0
 30
0.0
  3
*Paper_Space0
  1

  0
ENDBLK
  5
76
330
74
100
AcDbEntity
 67
     1
  8
0
100
AcDbBlockEnd
  0
ENDSEC
  0
SECTION
  2
ENTITIES
  0
SPLINE
  5
79
330
70
100
AcDbEntity
  8
Calque 1
 62
     4
420
    65535
370
    35
100
AcDbSpline
210
0.0
220
0.0
230
1.0
 70
     9
 71
     3
 72
   911
 73
   907
 74
     0
 42
0.0000000001
 43
0.0000000001
 40
0.0
 40
0.0
 40
0.0
 40
0.0
 40
1.0
 40
1.0
 40
1.0
 40
2.0
 40
2.0
 40
2.0
 40
3.0
 40
3.0
 40
3.0
 40
4.0
 40
4.0
 40
4.0
 40
5.0
 40
5.0
 40
5.0
 40
6.0
 40
6.0
 40
6.0
 40
7.0
 40
7.0
 40
7.0
 40
8.0
 40
8.0
 40
8.0
 40
9.0
 40
9.0
 40
9.0
 40
10.0
 40
10.0
 40
10.0
 40
11.0
 40
11.0
 40
11.0
 40
12.0
 40
12.0
 40
12.0
 40
13.0
 40
13.0
 40
13.0
 40
14.0
 40
14.0
 40
14.0
 40
15.0
 40
15.0
 40
15.0
 40
16.0
 40
16.0
 40
16.0
 40
17.0
 40
17.0
 40
17.0
 40
18.0
 40
18.0
 40
18.0
 40
19.0
 40
19.0
 40
19.0
 40
20.0
 40
20.0
 40
20.0
 40
21.0
 40
21.0
 40
21.0
 40
22.0
 40
22.0
 40
22.0
 40
23.0
 40
23.0
 40
23.0
 40
24.0
 40
24.0
 40
24.0
 40
25.0
 40
25.0
 40
25.0
 40
26.0
 40
26.0
 40
26.0
 40
27.0
 40
27.0
 40
27.0
 40
28.0
 40
28.0
 40
28.0
 40
29.0
 40
29.0
 40
29.0
 40
30.0
 40
30.0
 40
30.0
 40
31.0
 40
31.0
 40
31.0
 40
32.0
 40
32.0
 40
32.0
 40
33.0
 40
33.0
 40
33.0
 40
34.0
 40
34.0
 40
34.0
 40
35.0
 40
35.0
 40
35.0
 40
36.0
 40
36.0
 40
36.0
 40
37.0
 40
37.0
 40
37.0
 40
38.0
 40
38.0
 40
38.0
 40
39.0
 40
39.0
 40
39.0
 40
40.0
 40
40.0
 40
40.0
 40
41.0
 40
41.0
 40
41.0
 40
42.0
 40
42.0
 40
42.0
 40
43.0
 40
43.0
 40
43.0
 40
44.0
 40
44.0
 40
44.0
 40
45.0
 40
45.0
 40
45.0
 40
46.0
 40
46.0
 40
46.0
 40
47.0
 40
47.0
 40
47.0
 40
48.0
 40
48.0
 40
48.0
 40
49.0
 40
49.0
 40
49.0
 40
50.0
 40
50.0
 40
50.0
 40
51.0
 40
51.0
 40
51.0
 40
52.0
 40
52.0
 40
52.0
 40
53.0
 40
53.0
 40
53.0
 40
54.0
 40
54.0
 40
54.0
 40
55.0
 40
55.0
 40
55.0
 40
56.0
 40
56.0
 40
56.0
 40
57.0
 40
57.0
 40
57.0
 40
58.0
 40
58.0
 40
58.0
 40
59.0
 40
59.0
 40
59.0
 40
60.0
 40
60.0
 40
60.0
 40
61.0
 40
61.0
 40
61.0
 40
62.0
 40
62.0
 40
62.0
 40
63.0
 40
63.0
 40
63.0
 40
64.0
 40
64.0
 40
64.0
 40
65.0
 40
65.0
 40
65.0
 40
66.0
 40
66.0
 40
66.0
 40
67.0
 40
67.0
 40
67.0
 40
68.0
 40
68.0
 40
68.0
 40
69.0
 40
69.0
 40
69.0
 40
70.0
 40
70.0
 40
70.0
 40
71.0
 40
71.0
 40
71.0
 40
72.0
 40
72.0
 40
72.0
 40
73.0
 40
73.0
 40
73.0
 40
74.0
 40
74.0
 40
74.0
 40
75.0
 40
75.0
 40
75.0
 40
76.0
 40
76.0
 40
76.0
 40
77.0
 40
77.0
 40
77.0
 40
78.0
 40
78.0
 40
78.0
 40
79.0
 40
79.0
 40
79.0
 40
80.0
 40
80.0
 40
80.0
 40
81.0
 40
81.0
 40
81.0
 40
82.0
 40
82.0
 40
82.0
 40
83.0
 40
83.0
 40
83.0
 40
84.0
 40
84.0
 40
84.0
 40
85.0
 40
85.0
 40
85.0
 40
86.0
 40
86.0
 40
86.0
 40
87.0
 40
87.0
 40
87.0
 40
88.0
 40
88.0
 40
88.0
 40
89.0
 40
89.0
 40
89.0
 40
90.0
 40
90.0
 40
90.0
 40
91.0
 40
91.0
 40
91.0
 40
92.0
 40
92.0
 40
92.0
 40
93.0
 40
93.0
 40
93.0
 40
94.0
 40
94.0
 40
94.0
 40
95.0
 40
95.0
 40
95.0
 40
96.0
 40
96.0
 40
96.0
 40
97.0
 40
97.0
 40
97.0
 40
98.0
 40
98.0
 40
98.0
 40
99.0
 40
99.0
 40
99.0
 40
100.0
 40
100.0
 40
100.0
 40
101.0
 40
101.0
 40
101.0
 40
102.0
 40
102.0
 40
102.0
 40
103.0
 40
103.0
 40
103.0
 40
104.0
 40
104.0
 40
104.0
 40
105.0
 40
105.0
 40
105.0
 40
106.0
 40
106.0
 40
106.0
 40
107.0
 40
107.0
 40
107.0
 40
108.0
 40
108.0
 40
108.0
 40
109.0
 40
109.0
 40
109.0
 40
110.0
 40
110.0
 40
110.0
 40
111.0
 40
111.0
 40
111.0
 40
112.0
 40
112.0
 40
112.0
 40
113.0
 40
113.0
 40
113.0
 40
114.0
 40
114.0
 40
114.0
 40
115.0
 40
115.0
 40
115.0
 40
116.0
 40
116.0
 40
116.0
 40
117.0
 40
117.0
 40
117.0
 40
118.0
 40
118.0
 40
118.0
 40
119.0
 40
119.0
 40
119.0
 40
120.0
 40
120.0
 40
120.0
 40
121.0
 40
121.0
 40
121.0
 40
122.0
 40
122.0
 40
122.0
 40
123.0
 40
123.0
 40
123.0
 40
124.0
 40
124.0
 40
124.0
 40
125.0
 40
125.0
 40
125.0
 40
126.0
 40
126.0
 40
126.0
 40
127.0
 40
127.0
 40
127.0
 40
128.0
 40
128.0
 40
128.0
 40
129.0
 40
129.0
 40
129.0
 40
130.0
 40
130.0
 40
130.0
 40
131.0
 40
131.0
 40
131.0
 40
132.0
 40
132.0
 40
132.0
 40
133.0
 40
133.0
 40
133.0
 40
134.0
 40
134.0
 40
134.0
 40
135.0
 40
135.0
 40
135.0
 40
136.0
 40
136.0
 40
136.0
 40
137.0
 40
137.0
 40
137.0
 40
138.0
 40
138.0
 40
138.0
 40
139.0
 40
139.0
 40
139.0
 40
140.0
 40
140.0
 40
140.0
 40
141.0
 40
141.0
 40
141.0
 40
142.0
 40
142.0
 40
142.0
 40
143.0
 40
143.0
 40
143.0
 40
144.0
 40
144.0
 40
144.0
 40
145.0
 40
145.0
 40
145.0
 40
146.0
 40
146.0
 40
146.0
 40
147.0
 40
147.0
 40
147.0
 40
148.0
 40
148.0
 40
148.0
 40
149.0
 40
149.0
 40
149.0
 40
150.0
 40
150.0
 40
150.0
 40
151.0
 40
151.0
 40
151.0
 40
152.0
 40
152.0
 40
152.0
 40
153.0
 40
153.0
 40
153.0
 40
154.0
 40
154.0
 40
154.0
 40
155.0
 40
155.0
 40
155.0
 40
156.0
 40
156.0
 40
156.0
 40
157.0
 40
157.0
 40
157.0
 40
158.0
 40
158.0
 40
158.0
 40
159.0
 40
159.0
 40
159.0
 40
160.0
 40
160.0
 40
160.0
 40
161.0
 40
161.0
 40
161.0
 40
162.0
 40
162.0
 40
162.0
 40
163.0
 40
163.0
 40
163.0
 40
164.0
 40
164.0
 40
164.0
 40
165.0
 40
165.0
 40
165.0
 40
166.0
 40
166.0
 40
166.0
 40
167.0
 40
167.0
 40
167.0
 40
168.0
 40
168.0
 40
168.0
 40
169.0
 40
169.0
 40
169.0
 40
170.0
 40
170.0
 40
170.0
 40
171.0
 40
171.0
 40
171.0
 40
172.0
 40
172.0
 40
172.0
 40
173.0
 40
173.0
 40
173.0
 40
174.0
 40
174.0
 40
174.0
 40
175.0
 40
175.0
 40
175.0
 40
176.0
 40
176.0
 40
176.0
 40
177.0
 40
177.0
 40
177.0
 40
178.0
 40
178.0
 40
178.0
 40
179.0
 40
179.0
 40
179.0
 40
180.0
 40
180.0
 40
180.0
 40
181.0
 40
181.0
 40
181.0
 40
182.0
 40
182.0
 40
182.0
 40
183.0
 40
183.0
 40
183.0
 40
184.0
 40
184.0
 40
184.0
 40
185.0
 40
185.0
 40
185.0
 40
186.0
 40
186.0
 40
186.0
 40
187.0
 40
187.0
 40
187.0
 40
188.0
 40
188.0
 40
188.0
 40
189.0
 40
189.0
 40
189.0
 40
190.0
 40
190.0
 40
190.0
 40
191.0
 40
191.0
 40
191.0
 40
192.0
 40
192.0
 40
192.0
 40
193.0
 40
193.0
 40
193.0
 40
194.0
 40
194.0
 40
194.0
 40
195.0
 40
195.0
 40
195.0
 40
196.0
 40
196.0
 40
196.0
 40
197.0
 40
197.0
 40
197.0
 40
198.0
 40
198.0
 40
198.0
 40
199.0
 40
199.0
 40
199.0
 40
200.0
 40
200.0
 40
200.0
 40
201.0
 40
201.0
 40
201.0
 40
202.0
 40
202.0
 40
202.0
 40
203.0
 40
203.0
 40
203.0
 40
204.0
 40
204.0
 40
204.0
 40
205.0
 40
205.0
 40
205.0
 40
206.0
 40
206.0
 40
206.0
 40
207.0
 40
207.0
 40
207.0
 40
208.0
 40
208.0
 40
208.0
 40
209.0
 40
209.0
 40
209.0
 40
210.0
 40
210.0
 40
210.0
 40
211.0
 40
211.0
 40
211.0
 40
212.0
 40
212.0
 40
212.0
 40
213.0
 40
213.0
 40
213.0
 40
214.0
 40
214.0
 40
214.0
 40
215.0
 40
215.0
 40
215.0
 40
216.0
 40
216.0
 40
216.0
 40
217.0
 40
217.0
 40
217.0
 40
218.0
 40
218.0
 40
218.0
 40
219.0
 40
219.0
 40
219.0
 40
220.0
 40
220.0
 40
220.0
 40
221.0
 40
221.0
 40
221.0
 40
222.0
 40
222.0
 40
222.0
 40
223.0
 40
223.0
 40
223.0
 40
224.0
 40
224.0
 40
224.0
 40
225.0
 40
225.0
 40
225.0
 40
226.0
 40
226.0
 40
226.0
 40
227.0
 40
227.0
 40
227.0
 40
228.0
 40
228.0
 40
228.0
 40
229.0
 40
229.0
 40
229.0
 40
230.0
 40
230.0
 40
230.0
 40
231.0
 40
231.0
 40
231.0
 40
232.0
 40
232.0
 40
232.0
 40
233.0
 40
233.0
 40
233.0
 40
234.0
 40
234.0
 40
234.0
 40
235.0
 40
235.0
 40
235.0
 40
236.0
 40
236.0
 40
236.0
 40
237.0
 40
237.0
 40
237.0
 40
238.0
 40
238.0
 40
238.0
 40
239.0
 40
239.0
 40
239.0
 40
240.0
 40
240.0
 40
240.0
 40
241.0
 40
241.0
 40
241.0
 40
242.0
 40
242.0
 40
242.0
 40
243.0
 40
243.0
 40
243.0
 40
244.0
 40
244.0
 40
244.0
 40
245.0
 40
245.0
 40
245.0
 40
246.0
 40
246.0
 40
246.0
 40
247.0
 40
247.0
 40
247.0
 40
248.0
 40
248.0
 40
248.0
 40
249.0
 40
249.0
 40
249.0
 40
250.0
 40
250.0
 40
250.0
 40
251.0
 40
251.0
 40
251.0
 40
252.0
 40
252.0
 40
252.0
 40
253.0
 40
253.0
 40
253.0
 40
254.0
 40
254.0
 40
254.0
 40
255.0
 40
255.0
 40
255.0
 40
256.0
 40
256.0
 40
256.0
 40
257.0
 40
257.0
 40
257.0
 40
258.0
 40
258.0
 40
258.0
 40
259.0
 40
259.0
 40
259.0
 40
260.0
 40
260.0
 40
260.0
 40
261.0
 40
261.0
 40
261.0
 40
262.0
 40
262.0
 40
262.0
 40
263.0
 40
263.0
 40
263.0
 40
264.0
 40
264.0
 40
264.0
 40
265.0
 40
265.0
 40
265.0
 40
266.0
 40
266.0
 40
266.0
 40
267.0
 40
267.0
 40
267.0
 40
268.0
 40
268.0
 40
268.0
 40
269.0
 40
269.0
 40
269.0
 40
270.0
 40
270.0
 40
270.0
 40
271.0
 40
271.0
 40
271.0
 40
272.0
 40
272.0
 40
272.0
 40
273.0
 40
273.0
 40
273.0
 40
274.0
 40
274.0
 40
274.0
 40
275.0
 40
275.0
 40
275.0
 40
276.0
 40
276.0
 40
276.0
 40
277.0
 40
277.0
 40
277.0
 40
278.0
 40
278.0
 40
278.0
 40
279.0
 40
279.0
 40
279.0
 40
280.0
 40
280.0
 40
280.0
 40
281.0
 40
281.0
 40
281.0
 40
282.0
 40
282.0
 40
282.0
 40
283.0
 40
283.0
 40
283.0
 40
284.0
 40
284.0
 40
284.0
 40
285.0
 40
285.0
 40
285.0
 40
286.0
 40
286.0
 40
286.0
 40
287.0
 40
287.0
 40
287.0
 40
288.0
 40
288.0
 40
288.0
 40
289.0
 40
289.0
 40
289.0
 40
290.0
 40
290.0
 40
290.0
 40
291.0
 40
291.0
 40
291.0
 40
292.0
 40
292.0
 40
292.0
 40
293.0
 40
293.0
 40
293.0
 40
294.0
 40
294.0
 40
294.0
 40
295.0
 40
295.0
 40
295.0
 40
296.0
 40
296.0
 40
296.0
 40
297.0
 40
297.0
 40
297.0
 40
298.0
 40
298.0
 40
298.0
 40
299.0
 40
299.0
 40
299.0
 40
300.0
 40
300.0
 40
300.0
 40
301.0
 40
301.0
 40
301.0
 40
302.0
 40
302.0
 40
302.0
 40
302.0
 10
193.4745535711141
 20
-13.40205772998785
 30
0.0
 10
193.4745535711141
 20
-13.40205772998785
 30
0.0
 10
165.3352478700093
 20
-13.40364486347271
 30
0.0
 10
165.3352478700093
 20
-13.40364486347271
 30
0.0
 10
165.3352478700093
 20
-13.40364486347271
 30
0.0
 10
165.2289873476878
 20
-13.40205772998785
 30
0.0
 10
165.2289873476878
 20
-13.40205772998785
 30
0.0
 10
164.5936500716852
 20
-13.40205772998785
 30
0.0
 10
164.0821672733414
 20
-13.9701740963309
 30
0.0
 10
164.0821672733414
 20
-14.67602268067979
 30
0.0
 10
164.0821672733414
 20
-14.67602268067979
 30
0.0
 10
164.0821672733414
 20
-20.49155074228319
 30
0.0
 10
164.0821672733414
 20
-20.49155074228319
 30
0.0
 10
164.0821672733414
 20
-20.49155074228319
 30
0.0
 10
162.4261967126632
 20
-20.49155074228319
 30
0.0
 10
162.4261967126632
 20
-20.49155074228319
 30
0.0
 10
162.4261967126632
 20
-20.49155074228319
 30
0.0
 10
162.4261967126632
 20
-14.67602268067979
 30
0.0
 10
162.4261967126632
 20
-14.67602268067979
 30
0.0
 10
162.4261967126632
 20
-13.9701740963309
 30
0.0
 10
161.9147139143194
 20
-13.40205772998785
 30
0.0
 10
161.2793766383167
 20
-13.40205772998785
 30
0.0
 10
160.6440393623154
 20
-13.40205772998785
 30
0.0
 10
160.1325662416145
 20
-13.9701740963309
 30
0.0
 10
160.1325662416145
 20
-14.67602268067979
 30
0.0
 10
160.1325662416145
 20
-14.67602268067979
 30
0.0
 10
160.1325662416145
 20
-20.49155074228319
 30
0.0
 10
160.1325662416145
 20
-20.49155074228319
 30
0.0
 10
160.1325662416145
 20
-20.49155074228319
 30
0.0
 10
158.4758892129823
 20
-20.49155074228319
 30
0.0
 10
158.4758892129823
 20
-20.49155074228319
 30
0.0
 10
158.4758892129823
 20
-20.49155074228319
 30
0.0
 10
158.4758892129823
 20
-14.67602268067979
 30
0.0
 10
158.4758892129823
 20
-14.67602268067979
 30
0.0
 10
158.4758892129823
 20
-13.9701740963309
 30
0.0
 10
157.9644064146385
 20
-13.40205772998785
 30
0.0
 10
157.3290691386371
 20
-13.40205772998785
 30
0.0
 10
156.6937318626345
 20
-13.40205772998785
 30
0.0
 10
156.1822490642907
 20
-13.9701740963309
 30
0.0
 10
156.1822490642907
 20
-14.67602268067979
 30
0.0
 10
156.1822490642907
 20
-14.67602268067979
 30
0.0
 10
156.1822490642907
 20
-20.49155074228319
 30
0.0
 10
156.1822490642907
 20
-20.49155074228319
 30
0.0
 10
156.1822490642907
 20
-20.49155074228319
 30
0.0
 10
154.5262881812554
 20
-20.49155074228319
 30
0.0
 10
154.5262881812554
 20
-20.49155074228319
 30
0.0
 10
154.5262881812554
 20
-20.49155074228319
 30
0.0
 10
154.5262881812554
 20
-14.67602268067979
 30
0.0
 10
154.5262881812554
 20
-14.67602268067979
 30
0.0
 10
154.5262881812554
 20
-13.9701740963309
 30
0.0
 10
154.0148053829116
 20
-13.40205772998785
 30
0.0
 10
153.3794681069102
 20
-13.40205772998785
 30
0.0
 10
152.7441308309076
 20
-13.40205772998785
 30
0.0
 10
152.2326480325638
 20
-13.9701740963309
 30
0.0
 10
152.2326480325638
 20
-14.67602268067979
 30
0.0
 10
152.2326480325638
 20
-14.67602268067979
 30
0.0
 10
152.2326480325638
 20
-20.49155074228319
 30
0.0
 10
152.2326480325638
 20
-20.49155074228319
 30
0.0
 10
152.2326480325638
 20
-20.49155074228319
 30
0.0
 10
150.5759806815758
 20
-20.49155074228319
 30
0.0
 10
150.5759806815758
 20
-20.49155074228319
 30
0.0
 10
150.5759806815758
 20
-20.49155074228319
 30
0.0
 10
150.5759806815758
 20
-14.67602268067979
 30
0.0
 10
150.5759806815758
 20
-14.67602268067979
 30
0.0
 10
150.5759806815758
 20
-13.9701740963309
 30
0.0
 10
150.064497883232
 20
-13.40205772998785
 30
0.0
 10
149.4291606072294
 20
-13.40205772998785
 30
0.0
 10
148.7938233312267
 20
-13.40205772998785
 30
0.0
 10
148.2823405328829
 20
-13.9701740963309
 30
0.0
 10
148.2823405328829
 20
-14.67602268067979
 30
0.0
 10
148.2823405328829
 20
-14.67602268067979
 30
0.0
 10
148.2823405328829
 20
-20.49155074228319
 30
0.0
 10
148.2823405328829
 20
-20.49155074228319
 30
0.0
 10
148.2823405328829
 20
-20.49155074228319
 30
0.0
 10
146.6263699722047
 20
-20.49155074228319
 30
0.0
 10
146.6263699722047
 20
-20.49155074228319
 30
0.0
 10
146.6263699722047
 20
-20.49155074228319
 30
0.0
 10
146.6263699722047
 20
-14.67602268067979
 30
0.0
 10
146.6263699722047
 20
-14.67602268067979
 30
0.0
 10
146.6263699722047
 20
-13.9701740963309
 30
0.0
 10
146.1148968515051
 20
-13.40205772998785
 30
0.0
 10
145.4795498978596
 20
-13.40205772998785
 30
0.0
 10
144.8442222994998
 20
-13.40205772998785
 30
0.0
 10
144.3327395011561
 20
-13.9701740963309
 30
0.0
 10
144.3327395011561
 20
-14.67602268067979
 30
0.0
 10
144.3327395011561
 20
-14.67602268067979
 30
0.0
 10
144.3327395011561
 20
-20.49155074228319
 30
0.0
 10
144.3327395011561
 20
-20.49155074228319
 30
0.0
 10
144.3327395011561
 20
-20.49155074228319
 30
0.0
 10
142.6767689404779
 20
-20.49155074228319
 30
0.0
 10
142.6767689404779
 20
-20.49155074228319
 30
0.0
 10
142.6767689404779
 20
-20.49155074228319
 30
0.0
 10
142.6767689404779
 20
-14.67602268067979
 30
0.0
 10
142.6767689404779
 20
-14.67602268067979
 30
0.0
 10
142.6767689404779
 20
-13.9701740963309
 30
0.0
 10
142.1652861421341
 20
-13.40205772998785
 30
0.0
 10
141.5299488661327
 20
-13.40205772998785
 30
0.0
 10
140.8946115901301
 20
-13.40205772998785
 30
0.0
 10
140.3831287917876
 20
-13.9701740963309
 30
0.0
 10
140.3831287917876
 20
-14.67602268067979
 30
0.0
 10
140.3831287917876
 20
-14.67602268067979
 30
0.0
 10
140.3831287917876
 20
-20.49155074228319
 30
0.0
 10
140.3831287917876
 20
-20.49155074228319
 30
0.0
 10
140.3831287917876
 20
-20.49155074228319
 30
0.0
 10
138.7264614407983
 20
-20.49155074228319
 30
0.0
 10
138.7264614407983
 20
-20.49155074228319
 30
0.0
 10
138.7264614407983
 20
-20.49155074228319
 30
0.0
 10
138.7264614407983
 20
-14.67602268067979
 30
0.0
 10
138.7264614407983
 20
-14.67602268067979
 30
0.0
 10
138.7264614407983
 20
-13.9701740963309
 30
0.0
 10
138.2149786424545
 20
-13.40205772998785
 30
0.0
 10
137.5796413664518
 20
-13.40205772998785
 30
0.0
 10
136.9443040904492
 20
-13.40205772998785
 30
0.0
 10
136.4328212921067
 20
-13.9701740963309
 30
0.0
 10
136.4328212921067
 20
-14.67602268067979
 30
0.0
 10
136.4328212921067
 20
-14.67602268067979
 30
0.0
 10
136.4328212921067
 20
-20.49155074228319
 30
0.0
 10
136.4328212921067
 20
-20.49155074228319
 30
0.0
 10
136.4328212921067
 20
-20.49155074228319
 30
0.0
 10
134.7768507314272
 20
-20.49155074228319
 30
0.0
 10
134.7768507314272
 20
-20.49155074228319
 30
0.0
 10
134.7768507314272
 20
-20.49155074228319
 30
0.0
 10
134.7768507314272
 20
-14.67602268067979
 30
0.0
 10
134.7768507314272
 20
-14.67602268067979
 30
0.0
 10
134.7768507314272
 20
-13.9701740963309
 30
0.0
 10
134.2653776107276
 20
-13.40205772998785
 30
0.0
 10
133.630040334725
 20
-13.40205772998785
 30
0.0
 10
132.9947030587223
 20
-13.40205772998785
 30
0.0
 10
132.4832202603798
 20
-13.9701740963309
 30
0.0
 10
132.4832202603798
 20
-14.67602268067979
 30
0.0
 10
132.4832202603798
 20
-14.67602268067979
 30
0.0
 10
132.4832202603798
 20
-20.49155074228319
 30
0.0
 10
132.4832202603798
 20
-20.49155074228319
 30
0.0
 10
132.4832202603798
 20
-20.49155074228319
 30
0.0
 10
130.8265432317476
 20
-20.49155074228319
 30
0.0
 10
130.8265432317476
 20
-20.49155074228319
 30
0.0
 10
130.8265432317476
 20
-20.49155074228319
 30
0.0
 10
130.8265432317476
 20
-14.67602268067979
 30
0.0
 10
130.8265432317476
 20
-14.67602268067979
 30
0.0
 10
130.8265432317476
 20
-13.9701740963309
 30
0.0
 10
130.3150701110467
 20
-13.40205772998785
 30
0.0
 10
129.6797328350441
 20
-13.40205772998785
 30
0.0
 10
129.0443955590427
 20
-13.40205772998785
 30
0.0
 10
128.5329127606989
 20
-13.9701740963309
 30
0.0
 10
128.5329127606989
 20
-14.67602268067979
 30
0.0
 10
128.5329127606989
 20
-14.67602268067979
 30
0.0
 10
128.5329127606989
 20
-20.49155074228319
 30
0.0
 10
128.5329127606989
 20
-20.49155074228319
 30
0.0
 10
128.5329127606989
 20
-20.49155074228319
 30
0.0
 10
126.8769422000207
 20
-20.49155074228319
 30
0.0
 10
126.8769422000207
 20
-20.49155074228319
 30
0.0
 10
126.8769422000207
 20
-20.49155074228319
 30
0.0
 10
126.8769422000207
 20
-14.67602268067979
 30
0.0
 10
126.8769422000207
 20
-14.67602268067979
 30
0.0
 10
126.8769422000207
 20
-13.9701740963309
 30
0.0
 10
126.365459401677
 20
-13.40205772998785
 30
0.0
 10
125.7301221256756
 20
-13.40205772998785
 30
0.0
 10
125.0947848496729
 20
-13.40205772998785
 30
0.0
 10
124.5833020513291
 20
-13.9701740963309
 30
0.0
 10
124.5833020513291
 20
-14.67602268067979
 30
0.0
 10
124.5833020513291
 20
-14.67602268067979
 30
0.0
 10
124.5833020513291
 20
-20.49155074228319
 30
0.0
 10
124.5833020513291
 20
-20.49155074228319
 30
0.0
 10
124.5833020513291
 20
-20.49155074228319
 30
0.0
 10
122.9266347003398
 20
-20.49155074228319
 30
0.0
 10
122.9266347003398
 20
-20.49155074228319
 30
0.0
 10
122.9266347003398
 20
-20.49155074228319
 30
0.0
 10
122.9266347003398
 20
-14.67602268067979
 30
0.0
 10
122.9266347003398
 20
-14.67602268067979
 30
0.0
 10
122.9266347003398
 20
-13.9701740963309
 30
0.0
 10
122.4151519019973
 20
-13.40205772998785
 30
0.0
 10
121.7798146259934
 20
-13.40205772998785
 30
0.0
 10
121.144477349992
 20
-13.40205772998785
 30
0.0
 10
120.6329945516483
 20
-13.9701740963309
 30
0.0
 10
120.6329945516483
 20
-14.67602268067979
 30
0.0
 10
120.6329945516483
 20
-14.67602268067979
 30
0.0
 10
120.6329945516483
 20
-20.49155074228319
 30
0.0
 10
120.6329945516483
 20
-20.49155074228319
 30
0.0
 10
120.6329945516483
 20
-20.49155074228319
 30
0.0
 10
118.977033668613
 20
-20.49155074228319
 30
0.0
 10
118.977033668613
 20
-20.49155074228319
 30
0.0
 10
118.977033668613
 20
-20.49155074228319
 30
0.0
 10
118.977033668613
 20
-14.67602268067979
 30
0.0
 10
118.977033668613
 20
-14.67602268067979
 30
0.0
 10
118.977033668613
 20
-13.9701740963309
 30
0.0
 10
118.4655508702705
 20
-13.40205772998785
 30
0.0
 10
117.8302135942665
 20
-13.40205772998785
 30
0.0
 10
117.1948763182651
 20
-13.40205772998785
 30
0.0
 10
116.6833935199214
 20
-13.9701740963309
 30
0.0
 10
116.6833935199214
 20
-14.67602268067979
 30
0.0
 10
116.6833935199214
 20
-14.67602268067979
 30
0.0
 10
116.6833935199214
 20
-20.49155074228319
 30
0.0
 10
116.6833935199214
 20
-20.49155074228319
 30
0.0
 10
116.6833935199214
 20
-20.49155074228319
 30
0.0
 10
115.0274229592432
 20
-20.49155074228319
 30
0.0
 10
115.0274229592432
 20
-20.49155074228319
 30
0.0
 10
115.0274229592432
 20
-20.49155074228319
 30
0.0
 10
115.0274229592432
 20
-14.67602268067979
 30
0.0
 10
115.0274229592432
 20
-14.67602268067979
 30
0.0
 10
115.0274229592432
 20
-13.9701740963309
 30
0.0
 10
114.5159401608994
 20
-13.40205772998785
 30
0.0
 10
113.8806125625409
 20
-13.40205772998785
 30
0.0
 10
113.2452752865383
 20
-13.40205772998785
 30
0.0
 10
112.7337924881945
 20
-13.9701740963309
 30
0.0
 10
112.7337924881945
 20
-14.67602268067979
 30
0.0
 10
112.7337924881945
 20
-14.67602268067979
 30
0.0
 10
112.7337924881945
 20
-20.49155074228319
 30
0.0
 10
112.7337924881945
 20
-20.49155074228319
 30
0.0
 10
112.7337924881945
 20
-20.49155074228319
 30
0.0
 10
111.0771154595623
 20
-20.49155074228319
 30
0.0
 10
111.0771154595623
 20
-20.49155074228319
 30
0.0
 10
111.0771154595623
 20
-20.49155074228319
 30
0.0
 10
111.0771154595623
 20
-14.67602268067979
 30
0.0
 10
111.0771154595623
 20
-14.67602268067979
 30
0.0
 10
111.0771154595623
 20
-13.9701740963309
 30
0.0
 10
110.5656423388614
 20
-13.40205772998785
 30
0.0
 10
109.93030506286
 20
-13.40205772998785
 30
0.0
 10
109.2949677868574
 20
-13.40205772998785
 30
0.0
 10
108.7834849885149
 20
-13.9701740963309
 30
0.0
 10
108.7834849885149
 20
-14.67602268067979
 30
0.0
 10
108.7834849885149
 20
-14.67602268067979
 30
0.0
 10
108.7834849885149
 20
-20.49155074228319
 30
0.0
 10
108.7834849885149
 20
-20.49155074228319
 30
0.0
 10
108.7834849885149
 20
-20.49155074228319
 30
0.0
 10
107.1275144278357
 20
-20.49155074228319
 30
0.0
 10
107.1275144278357
 20
-20.49155074228319
 30
0.0
 10
107.1275144278357
 20
-20.49155074228319
 30
0.0
 10
107.1275144278357
 20
-14.67602268067979
 30
0.0
 10
107.1275144278357
 20
-14.67602268067979
 30
0.0
 10
107.1275144278357
 20
-13.9701740963309
 30
0.0
 10
106.6160316294926
 20
-13.40205772998785
 30
0.0
 10
105.9806943534906
 20
-13.40205772998785
 30
0.0
 10
105.3453570774879
 20
-13.40205772998785
 30
0.0
 10
104.8338742791442
 20
-13.9701740963309
 30
0.0
 10
104.8338742791442
 20
-14.67602268067979
 30
0.0
 10
104.8338742791442
 20
-14.67602268067979
 30
0.0
 10
104.8338742791442
 20
-20.49155074228319
 30
0.0
 10
104.8338742791442
 20
-20.49155074228319
 30
0.0
 10
104.8338742791442
 20
-20.49155074228319
 30
0.0
 10
103.1772069281549
 20
-20.49155074228319
 30
0.0
 10
103.1772069281549
 20
-20.49155074228319
 30
0.0
 10
103.1772069281549
 20
-20.49155074228319
 30
0.0
 10
103.1772069281549
 20
-14.67602268067979
 30
0.0
 10
103.1772069281549
 20
-14.67602268067979
 30
0.0
 10
103.1772069281549
 20
-13.9701740963309
 30
0.0
 10
102.6657241298124
 20
-13.40205772998785
 30
0.0
 10
102.0303868538097
 20
-13.40205772998785
 30
0.0
 10
101.3950495778077
 20
-13.40205772998785
 30
0.0
 10
100.8835667794639
 20
-13.9701740963309
 30
0.0
 10
100.8835667794639
 20
-14.67602268067979
 30
0.0
 10
100.8835667794639
 20
-14.67602268067979
 30
0.0
 10
100.8835667794639
 20
-20.49155074228319
 30
0.0
 10
100.8835667794639
 20
-20.49155074228319
 30
0.0
 10
100.8835667794639
 20
-20.49155074228319
 30
0.0
 10
99.22759621878576
 20
-20.49155074228319
 30
0.0
 10
99.22759621878576
 20
-20.49155074228319
 30
0.0
 10
99.22759621878576
 20
-20.49155074228319
 30
0.0
 10
99.22759621878576
 20
-14.67602268067979
 30
0.0
 10
99.22759621878576
 20
-14.67602268067979
 30
0.0
 10
99.22759621878576
 20
-13.9701740963309
 30
0.0
 10
98.71612309808551
 20
-13.40205772998785
 30
0.0
 10
98.08078582208285
 20
-13.40205772998785
 30
0.0
 10
97.44544854608085
 20
-13.40205772998785
 30
0.0
 10
96.93396574773705
 20
-13.9701740963309
 30
0.0
 10
96.93396574773705
 20
-14.67602268067979
 30
0.0
 10
96.93396574773705
 20
-14.67602268067979
 30
0.0
 10
96.93396574773705
 20
-20.49155074228319
 30
0.0
 10
96.93396574773705
 20
-20.49155074228319
 30
0.0
 10
96.93396574773705
 20
-20.49155074228319
 30
0.0
 10
95.2772887191055
 20
-20.49155074228319
 30
0.0
 10
95.2772887191055
 20
-20.49155074228319
 30
0.0
 10
95.2772887191055
 20
-20.49155074228319
 30
0.0
 10
95.2772887191055
 20
-14.67602268067979
 30
0.0
 10
95.2772887191055
 20
-14.67602268067979
 30
0.0
 10
95.2772887191055
 20
-13.9701740963309
 30
0.0
 10
94.76581559840459
 20
-13.40205772998785
 30
0.0
 10
94.13047832240259
 20
-13.40205772998785
 30
0.0
 10
93.49514104640057
 20
-13.40205772998785
 30
0.0
 10
92.9836582480568
 20
-13.9701740963309
 30
0.0
 10
92.9836582480568
 20
-14.67602268067979
 30
0.0
 10
92.9836582480568
 20
-14.67602268067979
 30
0.0
 10
92.9836582480568
 20
-20.49155074228319
 30
0.0
 10
92.9836582480568
 20
-20.49155074228319
 30
0.0
 10
92.9836582480568
 20
-20.49155074228319
 30
0.0
 10
91.32768768737863
 20
-20.49155074228319
 30
0.0
 10
91.32768768737863
 20
-20.49155074228319
 30
0.0
 10
91.32768768737863
 20
-20.49155074228319
 30
0.0
 10
91.32768768737863
 20
-14.67602268067979
 30
0.0
 10
91.32768768737863
 20
-14.67602268067979
 30
0.0
 10
91.32768768737863
 20
-13.9701740963309
 30
0.0
 10
90.81620488903483
 20
-13.40205772998785
 30
0.0
 10
90.18086761303219
 20
-13.40205772998785
 30
0.0
 10
89.54553033703017
 20
-13.40205772998785
 30
0.0
 10
89.0340475386864
 20
-13.9701740963309
 30
0.0
 10
89.0340475386864
 20
-14.67602268067979
 30
0.0
 10
89.0340475386864
 20
-14.67602268067979
 30
0.0
 10
89.0340475386864
 20
-20.49155074228319
 30
0.0
 10
89.0340475386864
 20
-20.49155074228319
 30
0.0
 10
89.0340475386864
 20
-20.49155074228319
 30
0.0
 10
87.37738018769773
 20
-20.49155074228319
 30
0.0
 10
87.37738018769773
 20
-20.49155074228319
 30
0.0
 10
87.37738018769773
 20
-20.49155074228319
 30
0.0
 10
87.37738018769773
 20
-14.67602268067979
 30
0.0
 10
87.37738018769773
 20
-14.67602268067979
 30
0.0
 10
87.37738018769773
 20
-13.9701740963309
 30
0.0
 10
86.86590706699684
 20
-13.40205772998785
 30
0.0
 10
86.23056011335192
 20
-13.40205772998785
 30
0.0
 10
85.59522283734992
 20
-13.40205772998785
 30
0.0
 10
85.08374971664968
 20
-13.9701740963309
 30
0.0
 10
85.08374971664968
 20
-14.67602268067979
 30
0.0
 10
85.08374971664968
 20
-14.67602268067979
 30
0.0
 10
85.08374971664968
 20
-20.49155074228319
 30
0.0
 10
85.08374971664968
 20
-20.49155074228319
 30
0.0
 10
85.08374971664968
 20
-20.49155074228319
 30
0.0
 10
83.42777915597086
 20
-20.49155074228319
 30
0.0
 10
83.42777915597086
 20
-20.49155074228319
 30
0.0
 10
83.42777915597086
 20
-20.49155074228319
 30
0.0
 10
83.42777915597086
 20
-14.67602268067979
 30
0.0
 10
83.42777915597086
 20
-14.67602268067979
 30
0.0
 10
83.42777915597086
 20
-13.9701740963309
 30
0.0
 10
82.91629635762708
 20
-13.40205772998785
 30
0.0
 10
82.28095908162506
 20
-13.40205772998785
 30
0.0
 10
81.64562180562304
 20
-13.40205772998785
 30
0.0
 10
81.13413900727925
 20
-13.9701740963309
 30
0.0
 10
81.13413900727925
 20
-14.67602268067979
 30
0.0
 10
81.13413900727925
 20
-14.67602268067979
 30
0.0
 10
81.13413900727925
 20
-20.49155074228319
 30
0.0
 10
81.13413900727925
 20
-20.49155074228319
 30
0.0
 10
81.13413900727925
 20
-20.49155074228319
 30
0.0
 10
79.47816844660109
 20
-20.49155074228319
 30
0.0
 10
79.47816844660109
 20
-20.49155074228319
 30
0.0
 10
79.47816844660109
 20
-20.49155074228319
 30
0.0
 10
79.47816844660109
 20
-14.67602268067979
 30
0.0
 10
79.47816844660109
 20
-14.67602268067979
 30
0.0
 10
79.47816844660109
 20
-13.9701740963309
 30
0.0
 10
78.96669532590019
 20
-13.40205772998785
 30
0.0
 10
78.33135804989819
 20
-13.40205772998785
 30
0.0
 10
77.69602077389617
 20
-13.40205772998785
 30
0.0
 10
77.18453797555238
 20
-13.9701740963309
 30
0.0
 10
77.18453797555238
 20
-14.67602268067979
 30
0.0
 10
77.18453797555238
 20
-14.67602268067979
 30
0.0
 10
77.18453797555238
 20
-20.49155074228319
 30
0.0
 10
77.18453797555238
 20
-20.49155074228319
 30
0.0
 10
77.18453797555238
 20
-20.49155074228319
 30
0.0
 10
75.52786094692018
 20
-20.49155074228319
 30
0.0
 10
75.52786094692018
 20
-20.49155074228319
 30
0.0
 10
75.52786094692018
 20
-20.49155074228319
 30
0.0
 10
75.52786094692018
 20
-14.67602268067979
 30
0.0
 10
75.52786094692018
 20
-14.67602268067979
 30
0.0
 10
75.52786094692018
 20
-13.9701740963309
 30
0.0
 10
75.01638782621994
 20
-13.40205772998785
 30
0.0
 10
74.38105055021792
 20
-13.40205772998785
 30
0.0
 10
73.74570359657238
 20
-13.40205772998785
 30
0.0
 10
73.23423047587214
 20
-13.9701740963309
 30
0.0
 10
73.23423047587214
 20
-14.67602268067979
 30
0.0
 10
73.23423047587214
 20
-14.67602268067979
 30
0.0
 10
73.23423047587214
 20
-20.49155074228319
 30
0.0
 10
73.23423047587214
 20
-20.49155074228319
 30
0.0
 10
73.23423047587214
 20
-20.49155074228319
 30
0.0
 10
71.57825991519331
 20
-20.49155074228319
 30
0.0
 10
71.57825991519331
 20
-20.49155074228319
 30
0.0
 10
71.57825991519331
 20
-20.49155074228319
 30
0.0
 10
71.57825991519331
 20
-14.67602268067979
 30
0.0
 10
71.57825991519331
 20
-14.67602268067979
 30
0.0
 10
71.57825991519331
 20
-13.9701740963309
 30
0.0
 10
71.06677711684953
 20
-13.40205772998785
 30
0.0
 10
70.43143984084752
 20
-13.40205772998785
 30
0.0
 10
69.79610256484551
 20
-13.40205772998785
 30
0.0
 10
69.28461976650173
 20
-13.9701740963309
 30
0.0
 10
69.28461976650173
 20
-14.67602268067979
 30
0.0
 10
69.28461976650173
 20
-14.67602268067979
 30
0.0
 10
69.28461976650173
 20
-20.49155074228319
 30
0.0
 10
69.28461976650173
 20
-20.49155074228319
 30
0.0
 10
69.28461976650173
 20
-20.49155074228319
 30
0.0
 10
67.62795241551306
 20
-20.49155074228319
 30
0.0
 10
67.62795241551306
 20
-20.49155074228319
 30
0.0
 10
67.62795241551306
 20
-20.49155074228319
 30
0.0
 10
67.62795241551306
 20
-14.67602268067979
 30
0.0
 10
67.62795241551306
 20
-14.67602268067979
 30
0.0
 10
67.62795241551306
 20
-13.9701740963309
 30
0.0
 10
67.11646961716929
 20
-13.40205772998785
 30
0.0
 10
66.48113234116727
 20
-13.40205772998785
 30
0.0
 10
65.84579506516525
 20
-13.40205772998785
 30
0.0
 10
65.33431226682147
 20
-13.9701740963309
 30
0.0
 10
65.33431226682147
 20
-14.67602268067979
 30
0.0
 10
65.33431226682147
 20
-14.67602268067979
 30
0.0
 10
65.33431226682147
 20
-20.49155074228319
 30
0.0
 10
65.33431226682147
 20
-20.49155074228319
 30
0.0
 10
65.33431226682147
 20
-20.49155074228319
 30
0.0
 10
63.67834170614266
 20
-20.49155074228319
 30
0.0
 10
63.67834170614266
 20
-20.49155074228319
 30
0.0
 10
63.67834170614266
 20
-20.49155074228319
 30
0.0
 10
63.67834170614266
 20
-14.67602268067979
 30
0.0
 10
63.67834170614266
 20
-14.67602268067979
 30
0.0
 10
63.67834170614266
 20
-13.9701740963309
 30
0.0
 10
63.1668685854424
 20
-13.40205772998785
 30
0.0
 10
62.53153130944038
 20
-13.40205772998785
 30
0.0
 10
61.89619403343837
 20
-13.40205772998785
 30
0.0
 10
61.3847112350946
 20
-13.9701740963309
 30
0.0
 10
61.3847112350946
 20
-14.67602268067979
 30
0.0
 10
61.3847112350946
 20
-14.67602268067979
 30
0.0
 10
61.3847112350946
 20
-20.49155074228319
 30
0.0
 10
61.3847112350946
 20
-20.49155074228319
 30
0.0
 10
61.3847112350946
 20
-20.49155074228319
 30
0.0
 10
59.72804388410593
 20
-20.49155074228319
 30
0.0
 10
59.72804388410593
 20
-20.49155074228319
 30
0.0
 10
59.72804388410593
 20
-20.49155074228319
 30
0.0
 10
59.72804388410593
 20
-14.67602268067979
 30
0.0
 10
59.72804388410593
 20
-14.67602268067979
 30
0.0
 10
59.72804388410593
 20
-13.9701740963309
 30
0.0
 10
59.21659011869146
 20
-13.40205772998785
 30
0.0
 10
58.58120445447307
 20
-13.40205772998785
 30
0.0
 10
57.94589621140166
 20
-13.40205772998785
 30
0.0
 10
57.43441341305723
 20
-13.9701740963309
 30
0.0
 10
57.43441341305723
 20
-14.67602268067979
 30
0.0
 10
57.43441341305723
 20
-14.67602268067979
 30
0.0
 10
57.43441341305723
 20
-20.49155074228319
 30
0.0
 10
57.43441341305723
 20
-20.49155074228319
 30
0.0
 10
57.43441341305723
 20
-20.49155074228319
 30
0.0
 10
55.77843317473552
 20
-20.49155074228319
 30
0.0
 10
55.77843317473552
 20
-20.49155074228319
 30
0.0
 10
55.77843317473552
 20
-20.49155074228319
 30
0.0
 10
55.77843317473552
 20
-14.67602268067979
 30
0.0
 10
55.77843317473552
 20
-14.67602268067979
 30
0.0
 10
55.77843317473552
 20
-13.9701740963309
 30
0.0
 10
55.26695037639175
 20
-13.40205772998785
 30
0.0
 10
54.63163245567679
 20
-13.40205772998785
 30
0.0
 10
53.99627582438771
 20
-13.40205772998785
 30
0.0
 10
53.48479302604394
 20
-13.9701740963309
 30
0.0
 10
53.48479302604394
 20
-14.67602268067979
 30
0.0
 10
53.48479302604394
 20
-14.67602268067979
 30
0.0
 10
53.48479302604394
 20
-20.49155074228319
 30
0.0
 10
53.48479302604394
 20
-20.49155074228319
 30
0.0
 10
53.48479302604394
 20
-20.49155074228319
 30
0.0
 10
51.82881278772223
 20
-20.49155074228319
 30
0.0
 10
51.82881278772223
 20
-20.49155074228319
 30
0.0
 10
51.82881278772223
 20
-20.49155074228319
 30
0.0
 10
51.82881278772223
 20
-14.67602268067979
 30
0.0
 10
51.82881278772223
 20
-14.67602268067979
 30
0.0
 10
51.82881278772223
 20
-13.9701740963309
 30
0.0
 10
51.31736869995193
 20
-13.40205772998785
 30
0.0
 10
50.68201206866286
 20
-13.40205772998785
 30
0.0
 10
50.68201206866286
 20
-13.40205772998785
 30
0.0
 10
22.55372920316124
 20
-13.40205772998785
 30
0.0
 10
22.55372920316124
 20
-13.40205772998785
 30
0.0
 10
19.02461209078012
 20
-13.40205772998785
 30
0.0
 10
16.1833721793269
 20
-16.24329764144108
 30
0.0
 10
16.1833721793269
 20
-19.77242443146604
 30
0.0
 10
16.1833721793269
 20
-19.77242443146604
 30
0.0
 10
16.1833721793269
 20
-254.1419099159107
 30
0.0
 10
16.1833721793269
 20
-254.1419099159107
 30
0.0
 10
16.1833721793269
 20
-257.6710560612217
 30
0.0
 10
19.02461209078012
 20
-260.5122669397456
 30
0.0
 10
22.55372920316124
 20
-260.5122669397456
 30
0.0
 10
22.55372920316124
 20
-260.5122669397456
 30
0.0
 10
50.68201206866286
 20
-260.5122669397456
 30
0.0
 10
50.68201206866286
 20
-260.5122669397456
 30
0.0
 10
51.31736869995193
 20
-260.5122669397456
 30
0.0
 10
51.82881278772223
 20
-259.9441505734022
 30
0.0
 10
51.82881278772223
 20
-259.2383310219839
 30
0.0
 10
51.82881278772223
 20
-259.2383310219839
 30
0.0
 10
51.82881278772223
 20
-253.4227836050928
 30
0.0
 10
51.82881278772223
 20
-253.4227836050928
 30
0.0
 10
51.82881278772223
 20
-253.4227836050928
 30
0.0
 10
53.48479302604394
 20
-253.4227836050928
 30
0.0
 10
53.48479302604394
 20
-253.4227836050928
 30
0.0
 10
53.48479302604394
 20
-253.4227836050928
 30
0.0
 10
53.48479302604394
 20
-259.2383310219839
 30
0.0
 10
53.48479302604394
 20
-259.2383310219839
 30
0.0
 10
53.48479302604394
 20
-259.9441505734022
 30
0.0
 10
53.99627582438771
 20
-260.5122669397456
 30
0.0
 10
54.63163245567679
 20
-260.5122669397456
 30
0.0
 10
55.26695037639175
 20
-260.5122669397456
 30
0.0
 10
55.77843317473552
 20
-259.9441505734022
 30
0.0
 10
55.77843317473552
 20
-259.2383310219839
 30
0.0
 10
55.77843317473552
 20
-259.2383310219839
 30
0.0
 10
55.77843317473552
 20
-253.4227836050928
 30
0.0
 10
55.77843317473552
 20
-253.4227836050928
 30
0.0
 10
55.77843317473552
 20
-253.4227836050928
 30
0.0
 10
57.43441341305723
 20
-253.4227836050928
 30
0.0
 10
57.43441341305723
 20
-253.4227836050928
 30
0.0
 10
57.43441341305723
 20
-253.4227836050928
 30
0.0
 10
57.43441341305723
 20
-259.2383310219839
 30
0.0
 10
57.43441341305723
 20
-259.2383310219839
 30
0.0
 10
57.43441341305723
 20
-259.9441505734022
 30
0.0
 10
57.94589621140166
 20
-260.5122669397456
 30
0.0
 10
58.58120445447307
 20
-260.5122669397456
 30
0.0
 10
59.21659011869146
 20
-260.5122669397456
 30
0.0
 10
59.72804388410593
 20
-259.9441505734022
 30
0.0
 10
59.72804388410593
 20
-259.2383310219839
 30
0.0
 10
59.72804388410593
 20
-259.2383310219839
 30
0.0
 10
59.72804388410593
 20
-253.4227836050928
 30
0.0
 10
59.72804388410593
 20
-253.4227836050928
 30
0.0
 10
59.72804388410593
 20
-253.4227836050928
 30
0.0
 10
61.3847112350946
 20
-253.4227836050928
 30
0.0
 10
61.3847112350946
 20
-253.4227836050928
 30
0.0
 10
61.3847112350946
 20
-253.4227836050928
 30
0.0
 10
61.3847112350946
 20
-259.2383310219839
 30
0.0
 10
61.3847112350946
 20
-259.2383310219839
 30
0.0
 10
61.3847112350946
 20
-259.9441505734022
 30
0.0
 10
61.89619403343837
 20
-260.5122669397456
 30
0.0
 10
62.53153130944038
 20
-260.5122669397456
 30
0.0
 10
63.1668685854424
 20
-260.5122669397456
 30
0.0
 10
63.67834170614266
 20
-259.9441505734022
 30
0.0
 10
63.67834170614266
 20
-259.2383310219839
 30
0.0
 10
63.67834170614266
 20
-259.2383310219839
 30
0.0
 10
63.67834170614266
 20
-253.4227836050928
 30
0.0
 10
63.67834170614266
 20
-253.4227836050928
 30
0.0
 10
63.67834170614266
 20
-253.4227836050928
 30
0.0
 10
65.33431226682147
 20
-253.4227836050928
 30
0.0
 10
65.33431226682147
 20
-253.4227836050928
 30
0.0
 10
65.33431226682147
 20
-253.4227836050928
 30
0.0
 10
65.33431226682147
 20
-259.2383310219839
 30
0.0
 10
65.33431226682147
 20
-259.2383310219839
 30
0.0
 10
65.33431226682147
 20
-259.9441505734022
 30
0.0
 10
65.84579506516525
 20
-260.5122669397456
 30
0.0
 10
66.48113234116727
 20
-260.5122669397456
 30
0.0
 10
67.11646961716929
 20
-260.5122669397456
 30
0.0
 10
67.62795241551306
 20
-259.9441505734022
 30
0.0
 10
67.62795241551306
 20
-259.2383310219839
 30
0.0
 10
67.62795241551306
 20
-259.2383310219839
 30
0.0
 10
67.62795241551306
 20
-253.4227836050928
 30
0.0
 10
67.62795241551306
 20
-253.4227836050928
 30
0.0
 10
67.62795241551306
 20
-253.4227836050928
 30
0.0
 10
69.28461976650173
 20
-253.4227836050928
 30
0.0
 10
69.28461976650173
 20
-253.4227836050928
 30
0.0
 10
69.28461976650173
 20
-253.4227836050928
 30
0.0
 10
69.28461976650173
 20
-259.2383310219839
 30
0.0
 10
69.28461976650173
 20
-259.2383310219839
 30
0.0
 10
69.28461976650173
 20
-259.9441505734022
 30
0.0
 10
69.79610256484551
 20
-260.5122669397456
 30
0.0
 10
70.43143984084752
 20
-260.5122669397456
 30
0.0
 10
71.06677711684953
 20
-260.5122669397456
 30
0.0
 10
71.57825991519331
 20
-259.9441505734022
 30
0.0
 10
71.57825991519331
 20
-259.2383310219839
 30
0.0
 10
71.57825991519331
 20
-259.2383310219839
 30
0.0
 10
71.57825991519331
 20
-253.4227836050928
 30
0.0
 10
71.57825991519331
 20
-253.4227836050928
 30
0.0
 10
71.57825991519331
 20
-253.4227836050928
 30
0.0
 10
73.23423047587214
 20
-253.4227836050928
 30
0.0
 10
73.23423047587214
 20
-253.4227836050928
 30
0.0
 10
73.23423047587214
 20
-253.4227836050928
 30
0.0
 10
73.23423047587214
 20
-259.2383310219839
 30
0.0
 10
73.23423047587214
 20
-259.2383310219839
 30
0.0
 10
73.23423047587214
 20
-259.9441505734022
 30
0.0
 10
73.74570359657238
 20
-260.5122669397456
 30
0.0
 10
74.38105055021792
 20
-260.5122669397456
 30
0.0
 10
75.01638782621994
 20
-260.5122669397456
 30
0.0
 10
75.52786094692018
 20
-259.9441505734022
 30
0.0
 10
75.52786094692018
 20
-259.2383310219839
 30
0.0
 10
75.52786094692018
 20
-259.2383310219839
 30
0.0
 10
75.52786094692018
 20
-253.4227836050928
 30
0.0
 10
75.52786094692018
 20
-253.4227836050928
 30
0.0
 10
75.52786094692018
 20
-253.4227836050928
 30
0.0
 10
77.18453797555238
 20
-253.4227836050928
 30
0.0
 10
77.18453797555238
 20
-253.4227836050928
 30
0.0
 10
77.18453797555238
 20
-253.4227836050928
 30
0.0
 10
77.18453797555238
 20
-259.2383310219839
 30
0.0
 10
77.18453797555238
 20
-259.2383310219839
 30
0.0
 10
77.18453797555238
 20
-259.9441505734022
 30
0.0
 10
77.69602077389617
 20
-260.5122669397456
 30
0.0
 10
78.33135804989819
 20
-260.5122669397456
 30
0.0
 10
78.96669532590019
 20
-260.5122669397456
 30
0.0
 10
79.47816844660109
 20
-259.9441505734022
 30
0.0
 10
79.47816844660109
 20
-259.2383310219839
 30
0.0
 10
79.47816844660109
 20
-259.2383310219839
 30
0.0
 10
79.47816844660109
 20
-253.4227836050928
 30
0.0
 10
79.47816844660109
 20
-253.4227836050928
 30
0.0
 10
79.47816844660109
 20
-253.4227836050928
 30
0.0
 10
81.13413900727925
 20
-253.4227836050928
 30
0.0
 10
81.13413900727925
 20
-253.4227836050928
 30
0.0
 10
81.13413900727925
 20
-253.4227836050928
 30
0.0
 10
81.13413900727925
 20
-259.2383310219839
 30
0.0
 10
81.13413900727925
 20
-259.2383310219839
 30
0.0
 10
81.13413900727925
 20
-259.9441505734022
 30
0.0
 10
81.64562180562304
 20
-260.5122669397456
 30
0.0
 10
82.28095908162506
 20
-260.5122669397456
 30
0.0
 10
82.91629635762708
 20
-260.5122669397456
 30
0.0
 10
83.42777915597086
 20
-259.9441505734022
 30
0.0
 10
83.42777915597086
 20
-259.2383310219839
 30
0.0
 10
83.42777915597086
 20
-259.2383310219839
 30
0.0
 10
83.42777915597086
 20
-253.4227836050928
 30
0.0
 10
83.42777915597086
 20
-253.4227836050928
 30
0.0
 10
83.42777915597086
 20
-253.4227836050928
 30
0.0
 10
85.08374971664968
 20
-253.4227836050928
 30
0.0
 10
85.08374971664968
 20
-253.4227836050928
 30
0.0
 10
85.08374971664968
 20
-253.4227836050928
 30
0.0
 10
85.08374971664968
 20
-259.2383310219839
 30
0.0
 10
85.08374971664968
 20
-259.2383310219839
 30
0.0
 10
85.08374971664968
 20
-259.9441505734022
 30
0.0
 10
85.59522283734992
 20
-260.5122669397456
 30
0.0
 10
86.23056011335192
 20
-260.5122669397456
 30
0.0
 10
86.86590706699684
 20
-260.5122669397456
 30
0.0
 10
87.37738018769773
 20
-259.9441505734022
 30
0.0
 10
87.37738018769773
 20
-259.2383310219839
 30
0.0
 10
87.37738018769773
 20
-259.2383310219839
 30
0.0
 10
87.37738018769773
 20
-253.4227836050928
 30
0.0
 10
87.37738018769773
 20
-253.4227836050928
 30
0.0
 10
87.37738018769773
 20
-253.4227836050928
 30
0.0
 10
89.0340475386864
 20
-253.4227836050928
 30
0.0
 10
89.0340475386864
 20
-253.4227836050928
 30
0.0
 10
89.0340475386864
 20
-253.4227836050928
 30
0.0
 10
89.0340475386864
 20
-259.2383310219839
 30
0.0
 10
89.0340475386864
 20
-259.2383310219839
 30
0.0
 10
89.0340475386864
 20
-259.9441505734022
 30
0.0
 10
89.54553033703017
 20
-260.5122669397456
 30
0.0
 10
90.18086761303219
 20
-260.5122669397456
 30
0.0
 10
90.81620488903483
 20
-260.5122669397456
 30
0.0
 10
91.32768768737863
 20
-259.9441505734022
 30
0.0
 10
91.32768768737863
 20
-259.2383310219839
 30
0.0
 10
91.32768768737863
 20
-259.2383310219839
 30
0.0
 10
91.32768768737863
 20
-253.4227836050928
 30
0.0
 10
91.32768768737863
 20
-253.4227836050928
 30
0.0
 10
91.32768768737863
 20
-253.4227836050928
 30
0.0
 10
92.9836582480568
 20
-253.4227836050928
 30
0.0
 10
92.9836582480568
 20
-253.4227836050928
 30
0.0
 10
92.9836582480568
 20
-253.4227836050928
 30
0.0
 10
92.9836582480568
 20
-259.2383310219839
 30
0.0
 10
92.9836582480568
 20
-259.2383310219839
 30
0.0
 10
92.9836582480568
 20
-259.9441505734022
 30
0.0
 10
93.49514104640057
 20
-260.5122669397456
 30
0.0
 10
94.13047832240259
 20
-260.5122669397456
 30
0.0
 10
94.76581559840459
 20
-260.5122669397456
 30
0.0
 10
95.2772887191055
 20
-259.9441505734022
 30
0.0
 10
95.2772887191055
 20
-259.2383310219839
 30
0.0
 10
95.2772887191055
 20
-259.2383310219839
 30
0.0
 10
95.2772887191055
 20
-253.4227836050928
 30
0.0
 10
95.2772887191055
 20
-253.4227836050928
 30
0.0
 10
95.2772887191055
 20
-253.4227836050928
 30
0.0
 10
96.93396574773705
 20
-253.4227836050928
 30
0.0
 10
96.93396574773705
 20
-253.4227836050928
 30
0.0
 10
96.93396574773705
 20
-253.4227836050928
 30
0.0
 10
96.93396574773705
 20
-259.2383310219839
 30
0.0
 10
96.93396574773705
 20
-259.2383310219839
 30
0.0
 10
96.93396574773705
 20
-259.9441505734022
 30
0.0
 10
97.44544854608085
 20
-260.5122669397456
 30
0.0
 10
98.08078582208285
 20
-260.5122669397456
 30
0.0
 10
98.71612309808551
 20
-260.5122669397456
 30
0.0
 10
99.22759621878576
 20
-259.9441505734022
 30
0.0
 10
99.22759621878576
 20
-259.2383310219839
 30
0.0
 10
99.22759621878576
 20
-259.2383310219839
 30
0.0
 10
99.22759621878576
 20
-253.4227836050928
 30
0.0
 10
99.22759621878576
 20
-253.4227836050928
 30
0.0
 10
99.22759621878576
 20
-253.4227836050928
 30
0.0
 10
100.8835667794639
 20
-253.4227836050928
 30
0.0
 10
100.8835667794639
 20
-253.4227836050928
 30
0.0
 10
100.8835667794639
 20
-253.4227836050928
 30
0.0
 10
100.8835667794639
 20
-259.2383310219839
 30
0.0
 10
100.8835667794639
 20
-259.2383310219839
 30
0.0
 10
100.8835667794639
 20
-259.9441505734022
 30
0.0
 10
101.3950495778077
 20
-260.5122669397456
 30
0.0
 10
102.0303868538097
 20
-260.5122669397456
 30
0.0
 10
102.6657241298124
 20
-260.5122669397456
 30
0.0
 10
103.1772069281549
 20
-259.9441505734022
 30
0.0
 10
103.1772069281549
 20
-259.2383310219839
 30
0.0
 10
103.1772069281549
 20
-259.2383310219839
 30
0.0
 10
103.1772069281549
 20
-253.4227836050928
 30
0.0
 10
103.1772069281549
 20
-253.4227836050928
 30
0.0
 10
103.1772069281549
 20
-253.4227836050928
 30
0.0
 10
104.8338742791442
 20
-253.4227836050928
 30
0.0
 10
104.8338742791442
 20
-253.4227836050928
 30
0.0
 10
104.8338742791442
 20
-253.4227836050928
 30
0.0
 10
104.8338742791442
 20
-259.2383310219839
 30
0.0
 10
104.8338742791442
 20
-259.2383310219839
 30
0.0
 10
104.8338742791442
 20
-259.9441505734022
 30
0.0
 10
105.3453570774879
 20
-260.5122669397456
 30
0.0
 10
105.9806943534906
 20
-260.5122669397456
 30
0.0
 10
106.6160316294926
 20
-260.5122669397456
 30
0.0
 10
107.1275144278357
 20
-259.9441505734022
 30
0.0
 10
107.1275144278357
 20
-259.2383310219839
 30
0.0
 10
107.1275144278357
 20
-259.2383310219839
 30
0.0
 10
107.1275144278357
 20
-253.4227836050928
 30
0.0
 10
107.1275144278357
 20
-253.4227836050928
 30
0.0
 10
107.1275144278357
 20
-253.4227836050928
 30
0.0
 10
108.7834849885149
 20
-253.4227836050928
 30
0.0
 10
108.7834849885149
 20
-253.4227836050928
 30
0.0
 10
108.7834849885149
 20
-253.4227836050928
 30
0.0
 10
108.7834849885149
 20
-259.2383310219839
 30
0.0
 10
108.7834849885149
 20
-259.2383310219839
 30
0.0
 10
108.7834849885149
 20
-259.9441505734022
 30
0.0
 10
109.2949677868574
 20
-260.5122669397456
 30
0.0
 10
109.93030506286
 20
-260.5122669397456
 30
0.0
 10
110.5656423388614
 20
-260.5122669397456
 30
0.0
 10
111.0771154595623
 20
-259.9441505734022
 30
0.0
 10
111.0771154595623
 20
-259.2383310219839
 30
0.0
 10
111.0771154595623
 20
-259.2383310219839
 30
0.0
 10
111.0771154595623
 20
-253.4227836050928
 30
0.0
 10
111.0771154595623
 20
-253.4227836050928
 30
0.0
 10
111.0771154595623
 20
-253.4227836050928
 30
0.0
 10
112.7337924881945
 20
-253.4227836050928
 30
0.0
 10
112.7337924881945
 20
-253.4227836050928
 30
0.0
 10
112.7337924881945
 20
-253.4227836050928
 30
0.0
 10
112.7337924881945
 20
-259.2383310219839
 30
0.0
 10
112.7337924881945
 20
-259.2383310219839
 30
0.0
 10
112.7337924881945
 20
-259.9441505734022
 30
0.0
 10
113.2452752865383
 20
-260.5122669397456
 30
0.0
 10
113.8806125625409
 20
-260.5122669397456
 30
0.0
 10
114.5159401608994
 20
-260.5122669397456
 30
0.0
 10
115.0274229592432
 20
-259.9441505734022
 30
0.0
 10
115.0274229592432
 20
-259.2383310219839
 30
0.0
 10
115.0274229592432
 20
-259.2383310219839
 30
0.0
 10
115.0274229592432
 20
-253.4227836050928
 30
0.0
 10
115.0274229592432
 20
-253.4227836050928
 30
0.0
 10
115.0274229592432
 20
-253.4227836050928
 30
0.0
 10
116.6833935199214
 20
-253.4227836050928
 30
0.0
 10
116.6833935199214
 20
-253.4227836050928
 30
0.0
 10
116.6833935199214
 20
-253.4227836050928
 30
0.0
 10
116.6833935199214
 20
-259.2383310219839
 30
0.0
 10
116.6833935199214
 20
-259.2383310219839
 30
0.0
 10
116.6833935199214
 20
-259.9441505734022
 30
0.0
 10
117.1948763182651
 20
-260.5122669397456
 30
0.0
 10
117.8302135942665
 20
-260.5122669397456
 30
0.0
 10
118.4655508702705
 20
-260.5122669397456
 30
0.0
 10
118.977033668613
 20
-259.9441505734022
 30
0.0
 10
118.977033668613
 20
-259.2383310219839
 30
0.0
 10
118.977033668613
 20
-259.2383310219839
 30
0.0
 10
118.977033668613
 20
-253.4227836050928
 30
0.0
 10
118.977033668613
 20
-253.4227836050928
 30
0.0
 10
118.977033668613
 20
-253.4227836050928
 30
0.0
 10
120.6329945516483
 20
-253.4227836050928
 30
0.0
 10
120.6329945516483
 20
-253.4227836050928
 30
0.0
 10
120.6329945516483
 20
-253.4227836050928
 30
0.0
 10
120.6329945516483
 20
-259.2383310219839
 30
0.0
 10
120.6329945516483
 20
-259.2383310219839
 30
0.0
 10
120.6329945516483
 20
-259.9441505734022
 30
0.0
 10
121.144477349992
 20
-260.5122669397456
 30
0.0
 10
121.7798146259934
 20
-260.5122669397456
 30
0.0
 10
122.4151519019973
 20
-260.5122669397456
 30
0.0
 10
122.9266347003398
 20
-259.9441505734022
 30
0.0
 10
122.9266347003398
 20
-259.2383310219839
 30
0.0
 10
122.9266347003398
 20
-259.2383310219839
 30
0.0
 10
122.9266347003398
 20
-253.4227836050928
 30
0.0
 10
122.9266347003398
 20
-253.4227836050928
 30
0.0
 10
122.9266347003398
 20
-253.4227836050928
 30
0.0
 10
124.5833020513291
 20
-253.4227836050928
 30
0.0
 10
124.5833020513291
 20
-253.4227836050928
 30
0.0
 10
124.5833020513291
 20
-253.4227836050928
 30
0.0
 10
124.5833020513291
 20
-259.2383310219839
 30
0.0
 10
124.5833020513291
 20
-259.2383310219839
 30
0.0
 10
124.5833020513291
 20
-259.9441505734022
 30
0.0
 10
125.0947848496729
 20
-260.5122669397456
 30
0.0
 10
125.7301221256756
 20
-260.5122669397456
 30
0.0
 10
126.365459401677
 20
-260.5122669397456
 30
0.0
 10
126.8769422000207
 20
-259.9441505734022
 30
0.0
 10
126.8769422000207
 20
-259.2383310219839
 30
0.0
 10
126.8769422000207
 20
-259.2383310219839
 30
0.0
 10
126.8769422000207
 20
-253.4227836050928
 30
0.0
 10
126.8769422000207
 20
-253.4227836050928
 30
0.0
 10
126.8769422000207
 20
-253.4227836050928
 30
0.0
 10
128.5329127606989
 20
-253.4227836050928
 30
0.0
 10
128.5329127606989
 20
-253.4227836050928
 30
0.0
 10
128.5329127606989
 20
-253.4227836050928
 30
0.0
 10
128.5329127606989
 20
-259.2383310219839
 30
0.0
 10
128.5329127606989
 20
-259.2383310219839
 30
0.0
 10
128.5329127606989
 20
-259.9441505734022
 30
0.0
 10
129.0443955590427
 20
-260.5122669397456
 30
0.0
 10
129.6797328350441
 20
-260.5122669397456
 30
0.0
 10
130.3150701110467
 20
-260.5122669397456
 30
0.0
 10
130.8265432317476
 20
-259.9441505734022
 30
0.0
 10
130.8265432317476
 20
-259.2383310219839
 30
0.0
 10
130.8265432317476
 20
-259.2383310219839
 30
0.0
 10
130.8265432317476
 20
-253.4227836050928
 30
0.0
 10
130.8265432317476
 20
-253.4227836050928
 30
0.0
 10
130.8265432317476
 20
-253.4227836050928
 30
0.0
 10
132.4832202603798
 20
-253.4227836050928
 30
0.0
 10
132.4832202603798
 20
-253.4227836050928
 30
0.0
 10
132.4832202603798
 20
-253.4227836050928
 30
0.0
 10
132.4832202603798
 20
-259.2383310219839
 30
0.0
 10
132.4832202603798
 20
-259.2383310219839
 30
0.0
 10
132.4832202603798
 20
-259.9441505734022
 30
0.0
 10
132.9947030587223
 20
-260.5122669397456
 30
0.0
 10
133.630040334725
 20
-260.5122669397456
 30
0.0
 10
134.2653776107276
 20
-260.5122669397456
 30
0.0
 10
134.7768507314272
 20
-259.9441505734022
 30
0.0
 10
134.7768507314272
 20
-259.2383310219839
 30
0.0
 10
134.7768507314272
 20
-259.2383310219839
 30
0.0
 10
134.7768507314272
 20
-253.4227836050928
 30
0.0
 10
134.7768507314272
 20
-253.4227836050928
 30
0.0
 10
134.7768507314272
 20
-253.4227836050928
 30
0.0
 10
136.4328212921067
 20
-253.4227836050928
 30
0.0
 10
136.4328212921067
 20
-253.4227836050928
 30
0.0
 10
136.4328212921067
 20
-253.4227836050928
 30
0.0
 10
136.4328212921067
 20
-259.2383310219839
 30
0.0
 10
136.4328212921067
 20
-259.2383310219839
 30
0.0
 10
136.4328212921067
 20
-259.9441505734022
 30
0.0
 10
136.9443040904492
 20
-260.5122669397456
 30
0.0
 10
137.5796413664518
 20
-260.5122669397456
 30
0.0
 10
138.2149786424545
 20
-260.5122669397456
 30
0.0
 10
138.7264614407983
 20
-259.9441505734022
 30
0.0
 10
138.7264614407983
 20
-259.2383310219839
 30
0.0
 10
138.7264614407983
 20
-259.2383310219839
 30
0.0
 10
138.7264614407983
 20
-253.4227836050928
 30
0.0
 10
138.7264614407983
 20
-253.4227836050928
 30
0.0
 10
138.7264614407983
 20
-253.4227836050928
 30
0.0
 10
140.3831287917876
 20
-253.4227836050928
 30
0.0
 10
140.3831287917876
 20
-253.4227836050928
 30
0.0
 10
140.3831287917876
 20
-253.4227836050928
 30
0.0
 10
140.3831287917876
 20
-259.2383310219839
 30
0.0
 10
140.3831287917876
 20
-259.2383310219839
 30
0.0
 10
140.3831287917876
 20
-259.9441505734022
 30
0.0
 10
140.8946115901301
 20
-260.5122669397456
 30
0.0
 10
141.5299488661327
 20
-260.5122669397456
 30
0.0
 10
142.1652861421341
 20
-260.5122669397456
 30
0.0
 10
142.6767689404779
 20
-259.9441505734022
 30
0.0
 10
142.6767689404779
 20
-259.2383310219839
 30
0.0
 10
142.6767689404779
 20
-259.2383310219839
 30
0.0
 10
142.6767689404779
 20
-253.4227836050928
 30
0.0
 10
142.6767689404779
 20
-253.4227836050928
 30
0.0
 10
142.6767689404779
 20
-253.4227836050928
 30
0.0
 10
144.3327395011561
 20
-253.4227836050928
 30
0.0
 10
144.3327395011561
 20
-253.4227836050928
 30
0.0
 10
144.3327395011561
 20
-253.4227836050928
 30
0.0
 10
144.3327395011561
 20
-259.2383310219839
 30
0.0
 10
144.3327395011561
 20
-259.2383310219839
 30
0.0
 10
144.3327395011561
 20
-259.9441505734022
 30
0.0
 10
144.8442222994998
 20
-260.5122669397456
 30
0.0
 10
145.4795498978596
 20
-260.5122669397456
 30
0.0
 10
146.1148968515051
 20
-260.5122669397456
 30
0.0
 10
146.6263699722047
 20
-259.9441505734022
 30
0.0
 10
146.6263699722047
 20
-259.2383310219839
 30
0.0
 10
146.6263699722047
 20
-259.2383310219839
 30
0.0
 10
146.6263699722047
 20
-253.4227836050928
 30
0.0
 10
146.6263699722047
 20
-253.4227836050928
 30
0.0
 10
146.6263699722047
 20
-253.4227836050928
 30
0.0
 10
148.2823405328829
 20
-253.4227836050928
 30
0.0
 10
148.2823405328829
 20
-253.4227836050928
 30
0.0
 10
148.2823405328829
 20
-253.4227836050928
 30
0.0
 10
148.2823405328829
 20
-259.2383310219839
 30
0.0
 10
148.2823405328829
 20
-259.2383310219839
 30
0.0
 10
148.2823405328829
 20
-259.9441505734022
 30
0.0
 10
148.7938233312267
 20
-260.5122669397456
 30
0.0
 10
149.4291606072294
 20
-260.5122669397456
 30
0.0
 10
150.064497883232
 20
-260.5122669397456
 30
0.0
 10
150.5759806815758
 20
-259.9441505734022
 30
0.0
 10
150.5759806815758
 20
-259.2383310219839
 30
0.0
 10
150.5759806815758
 20
-259.2383310219839
 30
0.0
 10
150.5759806815758
 20
-253.4227836050928
 30
0.0
 10
150.5759806815758
 20
-253.4227836050928
 30
0.0
 10
150.5759806815758
 20
-253.4227836050928
 30
0.0
 10
152.2326480325638
 20
-253.4227836050928
 30
0.0
 10
152.2326480325638
 20
-253.4227836050928
 30
0.0
 10
152.2326480325638
 20
-253.4227836050928
 30
0.0
 10
152.2326480325638
 20
-259.2383310219839
 30
0.0
 10
152.2326480325638
 20
-259.2383310219839
 30
0.0
 10
152.2326480325638
 20
-259.9441505734022
 30
0.0
 10
152.7441308309076
 20
-260.5122669397456
 30
0.0
 10
153.3794681069102
 20
-260.5122669397456
 30
0.0
 10
154.0148053829116
 20
-260.5122669397456
 30
0.0
 10
154.5262881812554
 20
-259.9441505734022
 30
0.0
 10
154.5262881812554
 20
-259.2383310219839
 30
0.0
 10
154.5262881812554
 20
-259.2383310219839
 30
0.0
 10
154.5262881812554
 20
-253.4227836050928
 30
0.0
 10
154.5262881812554
 20
-253.4227836050928
 30
0.0
 10
154.5262881812554
 20
-253.4227836050928
 30
0.0
 10
156.1822490642907
 20
-253.4227836050928
 30
0.0
 10
156.1822490642907
 20
-253.4227836050928
 30
0.0
 10
156.1822490642907
 20
-253.4227836050928
 30
0.0
 10
156.1822490642907
 20
-259.2383310219839
 30
0.0
 10
156.1822490642907
 20
-259.2383310219839
 30
0.0
 10
156.1822490642907
 20
-259.9441505734022
 30
0.0
 10
156.6937318626345
 20
-260.5122669397456
 30
0.0
 10
157.3290691386371
 20
-260.5122669397456
 30
0.0
 10
157.9644064146385
 20
-260.5122669397456
 30
0.0
 10
158.4758892129823
 20
-259.9441505734022
 30
0.0
 10
158.4758892129823
 20
-259.2383310219839
 30
0.0
 10
158.4758892129823
 20
-259.2383310219839
 30
0.0
 10
158.4758892129823
 20
-253.4227836050928
 30
0.0
 10
158.4758892129823
 20
-253.4227836050928
 30
0.0
 10
158.4758892129823
 20
-253.4227836050928
 30
0.0
 10
160.1325662416145
 20
-253.4227836050928
 30
0.0
 10
160.1325662416145
 20
-253.4227836050928
 30
0.0
 10
160.1325662416145
 20
-253.4227836050928
 30
0.0
 10
160.1325662416145
 20
-259.2383310219839
 30
0.0
 10
160.1325662416145
 20
-259.2383310219839
 30
0.0
 10
160.1325662416145
 20
-259.9441505734022
 30
0.0
 10
160.6440393623154
 20
-260.5122669397456
 30
0.0
 10
161.2793766383167
 20
-260.5122669397456
 30
0.0
 10
161.9147139143194
 20
-260.5122669397456
 30
0.0
 10
162.4261967126632
 20
-259.9441505734022
 30
0.0
 10
162.4261967126632
 20
-259.2383310219839
 30
0.0
 10
162.4261967126632
 20
-259.2383310219839
 30
0.0
 10
162.4261967126632
 20
-253.4227836050928
 30
0.0
 10
162.4261967126632
 20
-253.4227836050928
 30
0.0
 10
162.4261967126632
 20
-253.4227836050928
 30
0.0
 10
164.0821672733414
 20
-253.4227836050928
 30
0.0
 10
164.0821672733414
 20
-253.4227836050928
 30
0.0
 10
164.0821672733414
 20
-253.4227836050928
 30
0.0
 10
164.0821672733414
 20
-259.2383310219839
 30
0.0
 10
164.0821672733414
 20
-259.2383310219839
 30
0.0
 10
164.0821672733414
 20
-259.9441505734022
 30
0.0
 10
164.5936500716852
 20
-260.5122669397456
 30
0.0
 10
165.2289873476878
 20
-260.5122669397456
 30
0.0
 10
165.2289873476878
 20
-260.5122669397456
 30
0.0
 10
165.3352478700093
 20
-260.5106991615469
 30
0.0
 10
165.3352478700093
 20
-260.5106991615469
 30
0.0
 10
165.3352478700093
 20
-260.5106991615469
 30
0.0
 10
193.4745535711141
 20
-260.5122669397456
 30
0.0
 10
193.4745535711141
 20
-260.5122669397456
 30
0.0
 10
197.0036706834958
 20
-260.5122669397456
 30
0.0
 10
199.8449105949504
 20
-257.6710560612217
 30
0.0
 10
199.8449105949504
 20
-254.1419099159107
 30
0.0
 10
199.8449105949504
 20
-254.1419099159107
 30
0.0
 10
199.8449105949504
 20
-19.77242443146604
 30
0.0
 10
199.8449105949504
 20
-19.77242443146604
 30
0.0
 10
199.8449105949504
 20
-16.24329764144108
 30
0.0
 10
197.0036706834958
 20
-13.40205772998785
 30
0.0
 10
193.4745535711141
 20
-13.40205772998785
 30
0.0
  0
SPLINE
  5
7A
330
70
100
AcDbEntity
  8
Calque 1
 62
     4
420
    65535
370
    35
100
AcDbSpline
210
0.0
220
0.0
230
1.0
 70
     9
 71
     3
 72
    29
 73
    25
 74
     0
 42
0.0000000001
 43
0.0000000001
 40
0.0
 40
0.0
 40
0.0
 40
0.0
 40
1.0
 40
1.0
 40
1.0
 40
2.0
 40
2.0
 40
2.0
 40
3.0
 40
3.0
 40
3.0
 40
4.0
 40
4.0
 40
4.0
 40
5.0
 40
5.0
 40
5.0
 40
6.0
 40
6.0
 40
6.0
 40
7.0
 40
7.0
 40
7.0
 40
8.0
 40
8.0
 40
8.0
 40
8.0
 10
178.0872505086075
 20
-226.1407912820413
 30
0.0
 10
178.0872505086075
 20
-229.6699180720666
 30
0.0
 10
175.246107373587
 20
-232.5110515294442
 30
0.0
 10
171.7169805835624
 20
-232.5110515294442
 30
0.0
 10
171.7169805835624
 20
-232.5110515294442
 30
0.0
 10
44.31179499079153
 20
-232.5110515294442
 30
0.0
 10
44.31179499079153
 20
-232.5110515294442
 30
0.0
 10
40.78267787840977
 20
-232.5110515294442
 30
0.0
 10
37.94154442103219
 20
-229.6699180720666
 30
0.0
 10
37.94154442103219
 20
-226.1407912820413
 30
0.0
 10
37.94154442103219
 20
-226.1407912820413
 30
0.0
 10
37.94154442103219
 20
-47.77354306533477
 30
0.0
 10
37.94154442103219
 20
-47.77354306533477
 30
0.0
 10
37.94154442103219
 20
-44.2444162753098
 30
0.0
 10
40.78267787840977
 20
-41.40328281793189
 30
0.0
 10
44.31179499079153
 20
-41.40328281793189
 30
0.0
 10
44.31179499079153
 20
-41.40328281793189
 30
0.0
 10
171.7169805835624
 20
-41.40328281793189
 30
0.0
 10
171.7169805835624
 20
-41.40328281793189
 30
0.0
 10
175.246107373587
 20
-41.40328281793189
 30
0.0
 10
178.0872505086075
 20
-44.2444162753098
 30
0.0
 10
178.0872505086075
 20
-47.77354306533477
 30
0.0
 10
178.0872505086075
 20
-47.77354306533477
 30
0.0
 10
178.0872505086075
 20
-226.1407912820413
 30
0.0
 10
178.0872505086075
 20
-226.1407912820413
 30
0.0
  0
ENDSEC
  0
SECTION
  2
OBJECTS
  0
DICTIONARY
  5
C
330
0
100
AcDbDictionary
281
     1
  3
ACAD_COLOR
350
63
  3
ACAD_DETAILVIEWSTYLE
350
6A
  3
ACAD_GROUP
350
D
  3
ACAD_LAYOUT
350
62
  3
ACAD_MATERIAL
350
10
  3
ACAD_MLEADERSTYLE
350
66
  3
ACAD_MLINESTYLE
350
5F
  3
ACAD_PLOTSETTINGS
350
61
  3
ACAD_PLOTSTYLENAME
350
E
  3
ACAD_SCALELIST
350
42
  3
ACAD_SECTIONVIEWSTYLE
350
68
  3
ACAD_TABLESTYLE
350
64
  3
ACAD_VISUALSTYLE
350
29
  3
ACDB_RECOMPOSE_DATA
350
83
  3
AcDbVariableDictionary
350
7B
  0
DICTIONARY
  5
63
102
{ACAD_REACTORS
330
C
102
}
330
C
100
AcDbDictionary
281
     1
  0
DICTIONARY
  5
6A
102
{ACAD_REACTORS
330
C
102
}
330
C
100
AcDbDictionary
281
     1
  3
Imperial24
350
6B
  0
DICTIONARY
  5
D
102
{ACAD_REACTORS
330
C
102
}
330
C
100
AcDbDictionary
281
     1
  0
DICTIONARY
  5
62
102
{ACAD_REACTORS
330
C
102
}
330
C
100
AcDbDictionary
281
     1
  3
Layout1
350
6F
  3
Layout2
350
77
  3
Model
350
73
  0
DICTIONARY
  5
10
102
{ACAD_REACTORS
330
C
102
}
330
C
100
AcDbDictionary
281
     1
  3
ByBlock
350
19
  3
ByLayer
350
11
  3
Global
350
21
  0
DICTIONARY
  5
66
102
{ACAD_REACTORS
330
C
102
}
330
C
100
AcDbDictionary
281
     1
  3
Standard
350
67
  0
DICTIONARY
  5
5F
102
{ACAD_REACTORS
330
C
102
}
330
C
100
AcDbDictionary
281
     1
  3
Standard
350
60
  0
DICTIONARY
  5
61
102
{ACAD_REACTORS
330
C
102
}
330
C
100
AcDbDictionary
281
     1
  0
ACDBDICTIONARYWDFLT
  5
E
102
{ACAD_REACTORS
330
C
102
}
330
C
100
AcDbDictionary
281
     1
  3
Normal
350
F
100
AcDbDictionaryWithDefault
340
F
  0
DICTIONARY
  5
42
102
{ACAD_REACTORS
330
C
102
}
330
C
100
AcDbDictionary
281
     1
  3
A0
350
43
  3
A1
350
44
  3
A2
350
45
  3
A3
350
46
  3
A4
350
47
  3
A5
350
48
  3
A6
350
49
  3
A7
350
4A
  3
A8
350
4B
  3
A9
350
4C
  3
B0
350
4D
  3
B1
350
4E
  3
B2
350
4F
  3
B3
350
50
  3
B4
350
51
  3
B5
350
52
  3
B6
350
53
  0
DICTIONARY
  5
68
102
{ACAD_REACTORS
330
C
102
}
330
C
100
AcDbDictionary
281
     1
  3
Imperial24
350
69
  0
DICTIONARY
  5
64
102
{ACAD_REACTORS
330
C
102
}
330
C
100
AcDbDictionary
281
     1
  3
Standard
350
65
  0
DICTIONARY
  5
29
102
{ACAD_REACTORS
330
C
102
}
330
C
100
AcDbDictionary
281
     1
  3
2dWireframe
350
2F
  3
Basic
350
2E
  3
Brighten
350
35
  3
ColorChange
350
39
  3
Conceptual
350
32
  3
Dim
350
34
  3
EdgeColorOff
350
41
  3
Facepattern
350
38
  3
Flat
350
2A
  3
FlatWithEdges
350
2B
  3
Gouraud
350
2C
  3
GouraudWithEdges
350
2D
  3
Hidden
350
31
  3
JitterOff
350
3F
  3
Linepattern
350
37
  3
OverhangOff
350
40
  3
Realistic
350
33
  3
Shaded
350
3E
  3
Shaded with edges
350
3D
  3
Shades of Gray
350
3A
  3
Sketchy
350
3B
  3
Thicken
350
36
  3
Wireframe
350
30
  3
X-Ray
350
3C
  0
XRECORD
  5
83
102
{ACAD_REACTORS
330
C
102
}
330
C
100
AcDbXrecord
280
     1
 90
        1
330
65
  0
DICTIONARY
  5
7B
102
{ACAD_REACTORS
330
C
102
}
330
C
100
AcDbDictionary
281
     1
  3
CANNOSCALE
350
80
  3
CMLEADERSTYLE
350
7D
  3
CTABLESTYLE
350
7C
  3
CVIEWDETAILSTYLE
350
7E
  3
CVIEWSECTIONSTYLE
350
7F
  0
ACDBDETAILVIEWSTYLE
  5
6B
102
{ACAD_REACTORS
330
6A
102
}
330
6A
100
AcDbModelDocViewStyle
 70
     0
  3
Imperial24
290
     1
300
Imperial24
 90
        0
100
AcDbDetailViewStyle
 70
     0
 71
     0
 90
        3
 71
     1
340
55
 62
   256
 40
0.24
340
0
 62
   256
 40
0.24
300

 40
0.36
280
     3
 71
     2
340
5D
 90
       25
 62
   256
 71
     3
340
55
 62
   256
 40
0.24
 90
        1
 40
0.75
 90
        1
300
%<\AcVar ViewType \f "%tc1">% %<\AcVar ViewDetailId>%\PSCALE %<\AcVar ViewScale \f "%sn">%
 71
     4
340
5D
 90
       25
 62
   256
340
5D
 90
       25
 62
   256
280
     0
  0
LAYOUT
  5
6F
102
{ACAD_REACTORS
330
62
102
}
330
62
100
AcDbPlotSettings
  1

  2

  4

  6

 40
0.0
 41
0.0
 42
0.0
 43
0.0
 44
0.0
 45
0.0
 46
0.0
 47
0.0
 48
0.0
 49
0.0
140
0.0
141
0.0
142
1.0
143
1.0
 70
   688
 72
     0
 73
     0
 74
     5
  7

 75
    16
147
1.0
 76
     0
 77
     2
 78
   300
148
0.0
149
0.0
100
AcDbLayout
  1
Layout1
 70
     1
 71
     1
 10
0.0
 20
0.0
 11
12.0
 21
9.0
 12
0.0
 22
0.0
 32
0.0
 14
0.0
 24
0.0
 34
0.0
 15
0.0
 25
0.0
 35
0.0
146
0.0
 13
0.0
 23
0.0
 33
0.0
 16
1.0
 26
0.0
 36
0.0
 17
0.0
 27
1.0
 37
0.0
 76
     0
330
6C
  0
LAYOUT
  5
77
102
{ACAD_REACTORS
330
62
102
}
330
62
100
AcDbPlotSettings
  1

  2

  4

  6

 40
0.0
 41
0.0
 42
0.0
 43
0.0
 44
0.0
 45
0.0
 46
0.0
 47
0.0
 48
0.0
 49
0.0
140
0.0
141
0.0
142
1.0
143
1.0
 70
   688
 72
     0
 73
     0
 74
     5
  7

 75
    16
147
1.0
 76
     0
 77
     2
 78
   300
148
0.0
149
0.0
100
AcDbLayout
  1
Layout2
 70
     1
 71
     2
 10
0.0
 20
0.0
 11
12.0
 21
9.0
 12
0.0
 22
0.0
 32
0.0
 14
0.0
 24
0.0
 34
0.0
 15
0.0
 25
0.0
 35
0.0
146
0.0
 13
0.0
 23
0.0
 33
0.0
 16
1.0
 26
0.0
 36
0.0
 17
0.0
 27
1.0
 37
0.0
 76
     0
330
74
  0
LAYOUT
  5
73
102
{ACAD_REACTORS
330
62
102
}
330
62
100
AcDbPlotSettings
  1

  2

  4

  6

 40
0.0
 41
0.0
 42
0.0
 43
0.0
 44
0.0
 45
0.0
 46
0.0
 47
0.0
 48
0.0
 49
0.0
140
0.0
141
0.0
142
1.0
143
1.0
 70
  1712
 72
     0
 73
     0
 74
     0
  7

 75
     0
147
1.0
 76
     0
 77
     2
 78
   300
148
0.0
149
0.0
100
AcDbLayout
  1
Model
 70
     1
 71
     0
 10
0.0
 20
0.0
 11
12.0
 21
9.0
 12
0.0
 22
0.0
 32
0.0
 14
0.0
 24
0.0
 34
0.0
 15
0.0
 25
0.0
 35
0.0
146
0.0
 13
0.0
 23
0.0
 33
0.0
 16
1.0
 26
0.0
 36
0.0
 17
0.0
 27
1.0
 37
0.0
 76
     0
330
70
  0
MATERIAL
  5
19
102
{ACAD_XDICTIONARY
360
1A
102
}
102
{ACAD_REACTORS
330
10
102
}
330
10
100
AcDbMaterial
  1
ByBlock
 72
     0
 43
0.0208333333333333
 43
0.0
 43
0.0
 43
0.0
 43
0.0
 43
0.0208333333333333
 43
0.0
 43
0.0
 43
0.0
 43
0.0
 43
1.0
 43
0.0
 43
0.0
 43
0.0
 43
0.0
 43
1.0
 77
     0
 47
0.0208333333333333
 47
0.0
 47
0.0
 47
0.0
 47
0.0
 47
0.0208333333333333
 47
0.0
 47
0.0
 47
0.0
 47
0.0
 47
1.0
 47
0.0
 47
0.0
 47
0.0
 47
0.0
 47
1.0
171
     0
 49
0.0208333333333333
 49
0.0
 49
0.0
 49
0.0
 49
0.0
 49
0.0208333333333333
 49
0.0
 49
0.0
 49
0.0
 49
0.0
 49
1.0
 49
0.0
 49
0.0
 49
0.0
 49
0.0
 49
1.0
175
     0
142
0.0208333333333333
142
0.0
142
0.0
142
0.0
142
0.0
142
0.0208333333333333
142
0.0
142
0.0
142
0.0
142
0.0
142
1.0
142
0.0
142
0.0
142
0.0
142
0.0
142
1.0
179
     0
144
0.0208333333333333
144
0.0
144
0.0
144
0.0
144
0.0
144
0.0208333333333333
144
0.0
144
0.0
144
0.0
144
0.0
144
1.0
144
0.0
144
0.0
144
0.0
144
0.0
144
1.0
147
0.0208333333333333
147
0.0
147
0.0
147
0.0
147
0.0
147
0.0208333333333333
147
0.0
147
0.0
147
0.0
147
0.0
147
1.0
147
0.0
147
0.0
147
0.0
147
0.0
147
1.0
  0
MATERIAL
  5
11
102
{ACAD_XDICTIONARY
360
12
102
}
102
{ACAD_REACTORS
330
10
102
}
330
10
100
AcDbMaterial
  1
ByLayer
 72
     0
 43
0.0208333333333333
 43
0.0
 43
0.0
 43
0.0
 43
0.0
 43
0.0208333333333333
 43
0.0
 43
0.0
 43
0.0
 43
0.0
 43
1.0
 43
0.0
 43
0.0
 43
0.0
 43
0.0
 43
1.0
 77
     0
 47
0.0208333333333333
 47
0.0
 47
0.0
 47
0.0
 47
0.0
 47
0.0208333333333333
 47
0.0
 47
0.0
 47
0.0
 47
0.0
 47
1.0
 47
0.0
 47
0.0
 47
0.0
 47
0.0
 47
1.0
171
     0
 49
0.0208333333333333
 49
0.0
 49
0.0
 49
0.0
 49
0.0
 49
0.0208333333333333
 49
0.0
 49
0.0
 49
0.0
 49
0.0
 49
1.0
 49
0.0
 49
0.0
 49
0.0
 49
0.0
 49
1.0
175
     0
142
0.0208333333333333
142
0.0
142
0.0
142
0.0
142
0.0
142
0.0208333333333333
142
0.0
142
0.0
142
0.0
142
0.0
142
1.0
142
0.0
142
0.0
142
0.0
142
0.0
142
1.0
179
     0
144
0.0208333333333333
144
0.0
144
0.0
144
0.0
144
0.0
144
0.0208333333333333
144
0.0
144
0.0
144
0.0
144
0.0
144
1.0
144
0.0
144
0.0
144
0.0
144
0.0
144
1.0
147
0.0208333333333333
147
0.0
147
0.0
147
0.0
147
0.0
147
0.0208333333333333
147
0.0
147
0.0
147
0.0
147
0.0
147
1.0
147
0.0
147
0.0
147
0.0
147
0.0
147
1.0
  0
MATERIAL
  5
21
102
{ACAD_XDICTIONARY
360
22
102
}
102
{ACAD_REACTORS
330
10
102
}
330
10
100
AcDbMaterial
  1
Global
 72
     0
 43
0.0208333333333333
 43
0.0
 43
0.0
 43
0.0
 43
0.0
 43
0.0208333333333333
 43
0.0
 43
0.0
 43
0.0
 43
0.0
 43
1.0
 43
0.0
 43
0.0
 43
0.0
 43
0.0
 43
1.0
 77
     0
 47
0.0208333333333333
 47
0.0
 47
0.0
 47
0.0
 47
0.0
 47
0.0208333333333333
 47
0.0
 47
0.0
 47
0.0
 47
0.0
 47
1.0
 47
0.0
 47
0.0
 47
0.0
 47
0.0
 47
1.0
171
     0
 49
0.0208333333333333
 49
0.0
 49
0.0
 49
0.0
 49
0.0
 49
0.0208333333333333
 49
0.0
 49
0.0
 49
0.0
 49
0.0
 49
1.0
 49
0.0
 49
0.0
 49
0.0
 49
0.0
 49
1.0
175
     0
142
0.0208333333333333
142
0.0
142
0.0
142
0.0
142
0.0
142
0.0208333333333333
142
0.0
142
0.0
142
0.0
142
0.0
142
1.0
142
0.0
142
0.0
142
0.0
142
0.0
142
1.0
179
     0
144
0.0208333333333333
144
0.0
144
0.0
144
0.0
144
0.0
144
0.0208333333333333
144
0.0
144
0.0
144
0.0
144
0.0
144
1.0
144
0.0
144
0.0
144
0.0
144
0.0
144
1.0
147
0.0208333333333333
147
0.0
147
0.0
147
0.0
147
0.0
147
0.0208333333333333
147
0.0
147
0.0
147
0.0
147
0.0
147
1.0
147
0.0
147
0.0
147
0.0
147
0.0
147
1.0
  0
MLEADERSTYLE
  5
67
102
{ACAD_REACTORS
330
66
102
}
330
66
100
AcDbMLeaderStyle
179
     2
170
     2
171
     1
172
     0
 90
        2
 40
0.0
 41
0.0
173
     1
 91
-1056964608
340
5B
 92
       -2
290
     1
 42
0.09
291
     1
 43
0.36
  3
Standard
 44
0.18
300

342
55
174
     1
178
     6
175
     1
176
     0
 93
-1056964608
 45
0.18
292
     0
297
     0
 46
0.18
 94
-1056964608
 47
1.0
 49
1.0
140
1.0
293
     1
141
0.0
294
     1
177
     0
142
1.0
295
     1
296
     0
143
0.125
271
     0
272
     9
273
     9
298
     1
  0
MLINESTYLE
  5
60
102
{ACAD_REACTORS
330
5F
102
}
330
5F
100
AcDbMlineStyle
  2
STANDARD
 70
     0
  3

 62
   256
 51
90.0
 52
90.0
 71
     2
 49
0.5
 62
   256
  6
BYLAYER
 49
-0.5
 62
   256
  6
BYLAYER
  0
ACDBPLACEHOLDER
  5
F
102
{ACAD_REACTORS
330
E
102
}
330
E
  0
SCALE
  5
43
102
{ACAD_REACTORS
330
42
102
}
330
42
100
AcDbScale
 70
     0
300
1:1
140
1.0
141
1.0
290
     1
  0
SCALE
  5
44
102
{ACAD_REACTORS
330
42
102
}
330
42
100
AcDbScale
 70
     0
300
1/128" = 1'-0"
140
0.0078125
141
12.0
290
     0
  0
SCALE
  5
45
102
{ACAD_REACTORS
330
42
102
}
330
42
100
AcDbScale
 70
     0
300
1/64" = 1'-0"
140
0.015625
141
12.0
290
     0
  0
SCALE
  5
46
102
{ACAD_REACTORS
330
42
102
}
330
42
100
AcDbScale
 70
     0
300
1/32" = 1'-0"
140
0.03125
141
12.0
290
     0
  0
SCALE
  5
47
102
{ACAD_REACTORS
330
42
102
}
330
42
100
AcDbScale
 70
     0
300
1/16" = 1'-0"
140
0.0625
141
12.0
290
     0
  0
SCALE
  5
48
102
{ACAD_REACTORS
330
42
102
}
330
42
100
AcDbScale
 70
     0
300
3/32" = 1'-0"
140
0.09375
141
12.0
290
     0
  0
SCALE
  5
49
102
{ACAD_REACTORS
330
42
102
}
330
42
100
AcDbScale
 70
     0
300
1/8" = 1'-0"
140
0.125
141
12.0
290
     0
  0
SCALE
  5
4A
102
{ACAD_REACTORS
330
42
102
}
330
42
100
AcDbScale
 70
     0
300
3/16" = 1'-0"
140
0.1875
141
12.0
290
     0
  0
SCALE
  5
4B
102
{ACAD_REACTORS
330
42
102
}
330
42
100
AcDbScale
 70
     0
300
1/4" = 1'-0"
140
0.25
141
12.0
290
     0
  0
SCALE
  5
4C
102
{ACAD_REACTORS
330
42
102
}
330
42
100
AcDbScale
 70
     0
300
3/8" = 1'-0"
140
0.375
141
12.0
290
     0
  0
SCALE
  5
4D
102
{ACAD_REACTORS
330
42
102
}
330
42
100
AcDbScale
 70
     0
300
1/2" = 1'-0"
140
0.5
141
12.0
290
     0
  0
SCALE
  5
4E
102
{ACAD_REACTORS
330
42
102
}
330
42
100
AcDbScale
 70
     0
300
3/4" = 1'-0"
140
0.75
141
12.0
290
     0
  0
SCALE
  5
4F
102
{ACAD_REACTORS
330
42
102
}
330
42
100
AcDbScale
 70
     0
300
1" = 1'-0"
140
1.0
141
12.0
290
     0
  0
SCALE
  5
50
102
{ACAD_REACTORS
330
42
102
}
330
42
100
AcDbScale
 70
     0
300
1-1/2" = 1'-0"
140
1.5
141
12.0
290
     0
  0
SCALE
  5
51
102
{ACAD_REACTORS
330
42
102
}
330
42
100
AcDbScale
 70
     0
300
3" = 1'-0"
140
3.0
141
12.0
290
     0
  0
SCALE
  5
52
102
{ACAD_REACTORS
330
42
102
}
330
42
100
AcDbScale
 70
     0
300
6" = 1'-0"
140
6.0
141
12.0
290
     0
  0
SCALE
  5
53
102
{ACAD_REACTORS
330
42
102
}
330
42
100
AcDbScale
 70
     0
300
1'-0" = 1'-0"
140
12.0
141
12.0
290
     0
  0
ACDBSECTIONVIEWSTYLE
  5
69
102
{ACAD_REACTORS
330
68
102
}
330
68
100
AcDbModelDocViewStyle
 70
     0
  3
Imperial24
290
     1
300
Imperial24
 90
        0
100
AcDbSectionViewStyle
 70
     0
 71
     0
 90
       78
 71
     1
340
55
 62
   256
 40
0.24
340
0
340
0
 62
   256
 40
0.24
300
I, O, Q, S, X, Z
 40
0.48
 90
        3
 40
0.18
 90
        1
 71
     2
340
5D
 90
       25
 62
   256
340
5D
 90
       50
 62
   256
 40
0.24
 40
0.0
 40
0.24
 71
     3
340
55
 62
   256
 40
0.24
 90
        1
 40
0.75
 90
        1
300
%<\AcVar ViewType \f "%tc1">% %<\AcVar ViewSectionStartId>%-%<\AcVar ViewSectionEndId>%\PSCALE %<\AcVar ViewScale \f "%sn">%
 71
     4
 62
   256
 62
   257
300
ANSI31
 40
1.0
 90
        0
290
     0
290
     0
 90
        6
 40
0.0
 40
1.570796326794896
 40
0.2617993877991494
 40
1.308996938995747
 40
-0.2617993877991494
 40
1.832595714594046
  0
TABLESTYLE
  5
65
102
{ACAD_XDICTIONARY
360
81
102
}
102
{ACAD_REACTORS
330
64
102
}
330
64
100
AcDbTableStyle
280
     0
  3
Standard
 70
     0
 71
     0
 40
0.06
 41
0.06
280
     0
281
     0
  7
Standard
140
0.18
170
     2
 62
     0
 63
     7
283
     0
 90
      512
 91
        0
  1

274
    -2
284
     1
 64
     0
275
    -2
285
     1
 65
     0
276
    -2
286
     1
 66
     0
277
    -2
287
     1
 67
     0
278
    -2
288
     1
 68
     0
279
    -2
289
     1
 69
     0
  7
Standard
140
0.25
170
     5
 62
     0
 63
     7
283
     0
 90
      512
 91
        0
  1

274
    -2
284
     1
 64
     0
275
    -2
285
     1
 65
     0
276
    -2
286
     1
 66
     0
277
    -2
287
     1
 67
     0
278
    -2
288
     1
 68
     0
279
    -2
289
     1
 69
     0
  7
Standard
140
0.18
170
     5
 62
     0
 63
     7
283
     0
 90
      512
 91
        0
  1

274
    -2
284
     1
 64
     0
275
    -2
285
     1
 65
     0
276
    -2
286
     1
 66
     0
277
    -2
287
     1
 67
     0
278
    -2
288
     1
 68
     0
279
    -2
289
     1
 69
     0
  0
VISUALSTYLE
  5
2F
102
{ACAD_REACTORS
330
29
102
}
330
29
100
AcDbVisualStyle
  2
2dWireframe
 70
     4
177
     3
291
     0
 70
    58
 90
        0
176
     1
 90
        2
176
     1
 90
        0
176
     1
 90
        0
176
     1
 40
0.6
176
     1
 40
30.0
176
     1
 62
     7
420
 16777215
176
     1
 90
        1
176
     1
 90
        4
176
     1
 62
     7
176
     1
 62
   257
176
     1
 90
        1
176
     1
 90
        1
176
     1
 40
1.0
176
     1
 90
        0
176
     1
 62
   257
176
     1
 40
1.0
176
     1
 90
        1
176
     1
 90
        6
176
     1
 90
        2
176
     1
 62
     7
176
     1
 90
        5
176
     1
 90
        0
176
     1
 90
        0
176
     1
290
     0
176
     1
 90
        1
176
     1
 40
0.0
176
     1
 90
        0
176
     1
290
     1
176
     1
290
     1
176
     1
290
     0
176
     1
290
     0
176
     1
290
     0
176
     1
290
     0
176
     1
290
     0
176
     1
290
     0
176
     1
290
     0
176
     1
 90
       50
176
     1
 40
0.0
176
     1
 40
1.0
176
     1
 90
        0
176
     1
 62
    18
420
        0
176
     1
 90
       50
176
     1
 90
        3
176
     1
 62
     5
420
      255
176
     1
290
     0
176
     1
 90
       50
176
     1
 90
       50
176
     1
 90
       50
176
     1
290
     0
176
     1
 90
       50
176
     1
 62
   256
176
     0
 40
1.0
176
     0
 90
        2
176
     1
  1
strokes_ogs.tif
176
     1
290
     0
176
     1
 40
1.0
176
     1
 40
1.0
176
     1
  0
VISUALSTYLE
  5
2E
102
{ACAD_REACTORS
330
29
102
}
330
29
100
AcDbVisualStyle
  2
Basic
 70
     7
177
     3
291
     1
 70
    58
 90
        1
176
     1
 90
        0
176
     1
 90
        1
176
     1
 90
        0
176
     1
 40
0.6
176
     1
 40
30.0
176
     1
 62
     7
420
 16777215
176
     1
 90
        0
176
     1
 90
        4
176
     1
 62
     7
176
     1
 62
   257
176
     1
 90
        1
176
     1
 90
        1
176
     1
 40
1.0
176
     1
 90
        8
176
     1
 62
     7
176
     1
 40
1.0
176
     1
 90
        1
176
     1
 90
        6
176
     1
 90
        2
176
     1
 62
     7
176
     1
 90
        5
176
     1
 90
        0
176
     1
 90
        0
176
     1
290
     0
176
     1
 90
        1
176
     1
 40
0.0
176
     1
 90
        0
176
     1
290
     0
176
     1
290
     1
176
     1
290
     1
176
     1
290
     0
176
     1
290
     0
176
     1
290
     0
176
     1
290
     0
176
     1
290
     0
176
     1
290
     0
176
     1
 90
       50
176
     1
 40
0.0
176
     1
 40
1.0
176
     1
 90
        0
176
     1
 62
    18
420
        0
176
     1
 90
       50
176
     1
 90
        3
176
     1
 62
     5
420
      255
176
     1
290
     0
176
     1
 90
       50
176
     1
 90
       50
176
     1
 90
       50
176
     1
290
     0
176
     1
 90
       50
176
     1
 62
   256
176
     0
 40
1.0
176
     0
 90
        2
176
     1
  1
strokes_ogs.tif
176
     1
290
     0
176
     1
 40
1.0
176
     1
 40
1.0
176
     1
  0
VISUALSTYLE
  5
35
102
{ACAD_REACTORS
330
29
102
}
330
29
100
AcDbVisualStyle
  2
Brighten
 70
    12
177
     3
291
     1
 70
    58
 90
        2
176
     1
 90
        2
176
     1
 90
        0
176
     1
 90
        0
176
     1
 40
0.6
176
     1
 40
30.0
176
     1
 62
     7
420
 16777215
176
     1
 90
        1
176
     1
 90
        4
176
     1
 62
     7
176
     1
 62
   257
176
     1
 90
        1
176
     1
 90
        1
176
     1
 40
1.0
176
     1
 90
        8
176
     1
 62
     7
176
     1
 40
1.0
176
     1
 90
        1
176
     1
 90
        6
176
     1
 90
        2
176
     1
 62
     7
176
     1
 90
        5
176
     1
 90
        0
176
     1
 90
        0
176
     1
290
     0
176
     1
 90
        1
176
     1
 40
50.0
176
     1
 90
        0
176
     1
290
     0
176
     1
290
     1
176
     1
290
     1
176
     1
290
     0
176
     1
290
     0
176
     1
290
     0
176
     1
290
     0
176
     1
290
     0
176
     1
290
     0
176
     1
 90
       50
176
     1
 40
0.0
176
     1
 40
1.0
176
     1
 90
        0
176
     1
 62
    18
420
        0
176
     1
 90
       50
176
     1
 90
        3
176
     1
 62
     5
420
      255
176
     1
290
     0
176
     1
 90
       50
176
     1
 90
       50
176
     1
 90
       50
176
     1
290
     0
176
     1
 90
       50
176
     1
 62
   256
176
     0
 40
1.0
176
     0
 90
        2
176
     1
  1
strokes_ogs.tif
176
     1
290
     0
176
     1
 40
1.0
176
     1
 40
1.0
176
     1
  0
VISUALSTYLE
  5
39
102
{ACAD_REACTORS
330
29
102
}
330
29
100
AcDbVisualStyle
  2
ColorChange
 70
    16
177
     3
291
     1
 70
    58
 90
        2
176
     1
 90
        2
176
     1
 90
        3
176
     1
 90
        0
176
     1
 40
0.6
176
     1
 40
30.0
176
     1
 62
     8
420
  8421504
176
     1
 90
        1
176
     1
 90
        4
176
     1
 62
     7
176
     1
 62
   257
176
     1
 90
        1
176
     1
 90
        1
176
     1
 40
1.0
176
     1
 90
        8
176
     1
 62
     8
420
  8421504
176
     1
 40
1.0
176
     1
 90
        1
176
     1
 90
        6
176
     1
 90
        2
176
     1
 62
     7
176
     1
 90
        5
176
     1
 90
        0
176
     1
 90
        0
176
     1
290
     0
176
     1
 90
        1
176
     1
 40
0.0
176
     1
 90
        0
176
     1
290
     0
176
     1
290
     1
176
     1
290
     1
176
     1
290
     0
176
     1
290
     0
176
     1
290
     0
176
     1
290
     0
176
     1
290
     0
176
     1
290
     0
176
     1
 90
       50
176
     1
 40
0.0
176
     1
 40
1.0
176
     1
 90
        0
176
     1
 62
    18
420
        0
176
     1
 90
       50
176
     1
 90
        3
176
     1
 62
     5
420
      255
176
     1
290
     0
176
     1
 90
       50
176
     1
 90
       50
176
     1
 90
       50
176
     1
290
     0
176
     1
 90
       50
176
     1
 62
   256
176
     0
 40
1.0
176
     0
 90
        2
176
     1
  1
strokes_ogs.tif
176
     1
290
     0
176
     1
 40
1.0
176
     1
 40
1.0
176
     1
  0
VISUALSTYLE
  5
32
102
{ACAD_REACTORS
330
29
102
}
330
29
100
AcDbVisualStyle
  2
Conceptual
 70
     9
177
     3
291
     0
 70
    58
 90
        3
176
     1
 90
        2
176
     1
 90
        0
176
     1
 90
        0
176
     1
 40
0.6
176
     1
 40
30.0
176
     1
 62
     7
420
 16777215
176
     1
 90
        2
176
     1
 90
        2
176
     1
 62
     7
176
     1
 62
   257
176
     1
 90
        1
176
     1
 90
        1
176
     1
 40
179.0
176
     1
 90
        8
176
     1
 62
     7
176
     1
 40
1.0
176
     1
 90
        1
176
     1
 90
        6
176
     1
 90
        2
176
     1
 62
     7
176
     1
 90
        3
176
     1
 90
        0
176
     1
 90
        0
176
     1
290
     0
176
     1
 90
        1
176
     1
 40
0.0
176
     1
 90
        0
176
     1
290
     0
176
     1
290
     1
176
     1
290
     1
176
     1
290
     0
176
     1
290
     0
176
     1
290
     0
176
     1
290
     0
176
     1
290
     0
176
     1
290
     0
176
     1
 90
       50
176
     1
 40
0.0
176
     1
 40
1.0
176
     1
 90
        0
176
     1
 62
    18
420
        0
176
     1
 90
       50
176
     1
 90
        3
176
     1
 62
     5
420
      255
176
     1
290
     0
176
     1
 90
       50
176
     1
 90
       50
176
     1
 90
       50
176
     1
290
     0
176
     1
 90
       50
176
     1
 62
   256
176
     0
 40
1.0
176
     0
 90
        2
176
     1
  1
strokes_ogs.tif
176
     1
290
     0
176
     1
 40
1.0
176
     1
 40
1.0
176
     1
  0
VISUALSTYLE
  5
34
102
{ACAD_REACTORS
330
29
102
}
330
29
100
AcDbVisualStyle
  2
Dim
 70
    11
177
     3
291
     1
 70
    58
 90
        2
176
     1
 90
        2
176
     1
 90
        0
176
     1
 90
        0
176
     1
 40
0.6
176
     1
 40
30.0
176
     1
 62
     7
420
 16777215
176
     1
 90
        1
176
     1
 90
        4
176
     1
 62
     7
176
     1
 62
   257
176
     1
 90
        1
176
     1
 90
        1
176
     1
 40
1.0
176
     1
 90
        8
176
     1
 62
     7
176
     1
 40
1.0
176
     1
 90
        1
176
     1
 90
        6
176
     1
 90
        2
176
     1
 62
     7
176
     1
 90
        5
176
     1
 90
        0
176
     1
 90
        0
176
     1
290
     0
176
     1
 90
        1
176
     1
 40
-50.0
176
     1
 90
        0
176
     1
290
     0
176
     1
290
     1
176
     1
290
     1
176
     1
290
     0
176
     1
290
     0
176
     1
290
     0
176
     1
290
     0
176
     1
290
     0
176
     1
290
     0
176
     1
 90
       50
176
     1
 40
0.0
176
     1
 40
1.0
176
     1
 90
        0
176
     1
 62
    18
420
        0
176
     1
 90
       50
176
     1
 90
        3
176
     1
 62
     5
420
      255
176
     1
290
     0
176
     1
 90
       50
176
     1
 90
       50
176
     1
 90
       50
176
     1
290
     0
176
     1
 90
       50
176
     1
 62
   256
176
     0
 40
1.0
176
     0
 90
        2
176
     1
  1
strokes_ogs.tif
176
     1
290
     0
176
     1
 40
1.0
176
     1
 40
1.0
176
     1
  0
VISUALSTYLE
  5
41
102
{ACAD_REACTORS
330
29
102
}
330
29
100
AcDbVisualStyle
  2
EdgeColorOff
 70
    22
177
     3
291
     1
 70
    58
 90
        2
176
     0
 90
        2
176
     0
 90
        0
176
     0
 90
        0
176
     0
 40
0.6
176
     0
 40
30.0
176
     0
 62
     7
420
 16777215
176
     0
 90
        1
176
     0
 90
        4
176
     0
 62
     7
176
     0
 62
   257
176
     0
 90
        1
176
     0
 90
        1
176
     0
 40
1.0
176
     0
 90
        8
176
     2
 62
     7
176
     0
 40
1.0
176
     0
 90
        1
176
     0
 90
        6
176
     0
 90
        2
176
     0
 62
     7
176
     0
 90
        5
176
     0
 90
        0
176
     0
 90
        0
176
     0
290
     0
176
     0
 90
        1
176
     0
 40
0.0
176
     0
 90
        0
176
     0
290
     0
176
     0
290
     1
176
     0
290
     1
176
     0
290
     0
176
     0
290
     0
176
     0
290
     0
176
     0
290
     0
176
     0
290
     0
176
     0
290
     0
176
     0
 90
       50
176
     0
 40
0.0
176
     0
 40
1.0
176
     0
 90
        0
176
     0
 62
    18
420
        0
176
     0
 90
       50
176
     0
 90
        3
176
     0
 62
     5
420
      255
176
     0
290
     0
176
     0
 90
       50
176
     0
 90
       50
176
     0
 90
       50
176
     0
290
     0
176
     0
 90
       50
176
     0
 62
   256
176
     0
 40
1.0
176
     0
 90
        2
176
     0
  1
strokes_ogs.tif
176
     0
290
     0
176
     0
 40
1.0
176
     0
 40
1.0
176
     0
  0
VISUALSTYLE
  5
38
102
{ACAD_REACTORS
330
29
102
}
330
29
100
AcDbVisualStyle
  2
Facepattern
 70
    15
177
     3
291
     1
 70
    58
 90
        2
176
     1
 90
        2
176
     1
 90
        0
176
     1
 90
        0
176
     1
 40
0.6
176
     1
 40
30.0
176
     1
 62
     7
420
 16777215
176
     1
 90
        1
176
     1
 90
        4
176
     1
 62
     7
176
     1
 62
   257
176
     1
 90
        1
176
     1
 90
        1
176
     1
 40
1.0
176
     1
 90
        8
176
     1
 62
     7
176
     1
 40
1.0
176
     1
 90
        1
176
     1
 90
        6
176
     1
 90
        2
176
     1
 62
     7
176
     1
 90
        5
176
     1
 90
        0
176
     1
 90
        0
176
     1
290
     0
176
     1
 90
        1
176
     1
 40
0.0
176
     1
 90
        0
176
     1
290
     0
176
     1
290
     1
176
     1
290
     1
176
     1
290
     0
176
     1
290
     0
176
     1
290
     0
176
     1
290
     0
176
     1
290
     0
176
     1
290
     0
176
     1
 90
       50
176
     1
 40
0.0
176
     1
 40
1.0
176
     1
 90
        0
176
     1
 62
    18
420
        0
176
     1
 90
       50
176
     1
 90
        3
176
     1
 62
     5
420
      255
176
     1
290
     0
176
     1
 90
       50
176
     1
 90
       50
176
     1
 90
       50
176
     1
290
     0
176
     1
 90
       50
176
     1
 62
   256
176
     0
 40
1.0
176
     0
 90
        2
176
     1
  1
strokes_ogs.tif
176
     1
290
     0
176
     1
 40
1.0
176
     1
 40
1.0
176
     1
  0
VISUALSTYLE
  5
2A
102
{ACAD_REACTORS
330
29
102
}
330
29
100
AcDbVisualStyle
  2
Flat
 70
     0
177
     3
291
     1
 70
    58
 90
        2
176
     1
 90
        1
176
     1
 90
        1
176
     1
 90
        2
176
     1
 40
0.6
176
     1
 40
30.0
176
     1
 62
     7
420
 16777215
176
     1
 90
        0
176
     1
 90
        0
176
     1
 62
     7
176
     1
 62
   257
176
     1
 90
        1
176
     1
 90
        1
176
     1
 40
1.0
176
     1
 90
        8
176
     1
 62
     7
176
     1
 40
1.0
176
     1
 90
        1
176
     1
 90
        6
176
     1
 90
        2
176
     1
 62
     7
176
     1
 90
        5
176
     1
 90
        0
176
     1
 90
        0
176
     1
290
     0
176
     1
 90
       13
176
     1
 40
0.0
176
     1
 90
        0
176
     1
290
     0
176
     1
290
     1
176
     1
290
     1
176
     1
290
     0
176
     1
290
     0
176
     1
290
     0
176
     1
290
     0
176
     1
290
     0
176
     1
290
     0
176
     1
 90
       50
176
     1
 40
0.0
176
     1
 40
1.0
176
     1
 90
        0
176
     1
 62
    18
420
        0
176
     1
 90
       50
176
     1
 90
        3
176
     1
 62
     5
420
      255
176
     1
290
     0
176
     1
 90
       50
176
     1
 90
       50
176
     1
 90
       50
176
     1
290
     0
176
     1
 90
       50
176
     1
 62
   256
176
     0
 40
1.0
176
     0
 90
        2
176
     1
  1
strokes_ogs.tif
176
     1
290
     0
176
     1
 40
1.0
176
     1
 40
1.0
176
     1
  0
VISUALSTYLE
  5
2B
102
{ACAD_REACTORS
330
29
102
}
330
29
100
AcDbVisualStyle
  2
FlatWithEdges
 70
     1
177
     3
291
     1
 70
    58
 90
        2
176
     1
 90
        1
176
     1
 90
        1
176
     1
 90
        2
176
     1
 40
0.6
176
     1
 40
30.0
176
     1
 62
     7
420
 16777215
176
     1
 90
        1
176
     1
 90
        0
176
     1
 62
     7
176
     1
 62
   257
176
     1
 90
        1
176
     1
 90
        1
176
     1
 40
1.0
176
     1
 90
        0
176
     1
 62
   257
176
     1
 40
1.0
176
     1
 90
        1
176
     1
 90
        6
176
     1
 90
        2
176
     1
 62
     7
176
     1
 90
        5
176
     1
 90
        0
176
     1
 90
        0
176
     1
290
     0
176
     1
 90
       13
176
     1
 40
0.0
176
     1
 90
        0
176
     1
290
     0
176
     1
290
     1
176
     1
290
     1
176
     1
290
     0
176
     1
290
     0
176
     1
290
     0
176
     1
290
     0
176
     1
290
     0
176
     1
290
     0
176
     1
 90
       50
176
     1
 40
0.0
176
     1
 40
1.0
176
     1
 90
        0
176
     1
 62
    18
420
        0
176
     1
 90
       50
176
     1
 90
        3
176
     1
 62
     5
420
      255
176
     1
290
     0
176
     1
 90
       50
176
     1
 90
       50
176
     1
 90
       50
176
     1
290
     0
176
     1
 90
       50
176
     1
 62
   256
176
     0
 40
1.0
176
     0
 90
        2
176
     1
  1
strokes_ogs.tif
176
     1
290
     0
176
     1
 40
1.0
176
     1
 40
1.0
176
     1
  0
VISUALSTYLE
  5
2C
102
{ACAD_REACTORS
330
29
102
}
330
29
100
AcDbVisualStyle
  2
Gouraud
 70
     2
177
     3
291
     1
 70
    58
 90
        2
176
     1
 90
        2
176
     1
 90
        1
176
     1
 90
        2
176
     1
 40
0.6
176
     1
 40
30.0
176
     1
 62
     7
420
 16777215
176
     1
 90
        0
176
     1
 90
        0
176
     1
 62
     7
176
     1
 62
   257
176
     1
 90
        1
176
     1
 90
        1
176
     1
 40
1.0
176
     1
 90
        0
176
     1
 62
     7
176
     1
 40
1.0
176
     1
 90
        1
176
     1
 90
        6
176
     1
 90
        2
176
     1
 62
     7
176
     1
 90
        5
176
     1
 90
        0
176
     1
 90
        0
176
     1
290
     0
176
     1
 90
       13
176
     1
 40
0.0
176
     1
 90
        0
176
     1
290
     0
176
     1
290
     1
176
     1
290
     1
176
     1
290
     0
176
     1
290
     0
176
     1
290
     0
176
     1
290
     0
176
     1
290
     0
176
     1
290
     0
176
     1
 90
       50
176
     1
 40
0.0
176
     1
 40
1.0
176
     1
 90
        0
176
     1
 62
    18
420
        0
176
     1
 90
       50
176
     1
 90
        3
176
     1
 62
     5
420
      255
176
     1
290
     0
176
     1
 90
       50
176
     1
 90
       50
176
     1
 90
       50
176
     1
290
     0
176
     1
 90
       50
176
     1
 62
   256
176
     0
 40
1.0
176
     0
 90
        2
176
     1
  1
strokes_ogs.tif
176
     1
290
     0
176
     1
 40
1.0
176
     1
 40
1.0
176
     1
  0
VISUALSTYLE
  5
2D
102
{ACAD_REACTORS
330
29
102
}
330
29
100
AcDbVisualStyle
  2
GouraudWithEdges
 70
     3
177
     3
291
     1
 70
    58
 90
        2
176
     1
 90
        2
176
     1
 90
        1
176
     1
 90
        2
176
     1
 40
0.6
176
     1
 40
30.0
176
     1
 62
     7
420
 16777215
176
     1
 90
        1
176
     1
 90
        0
176
     1
 62
     7
176
     1
 62
   257
176
     1
 90
        1
176
     1
 90
        1
176
     1
 40
1.0
176
     1
 90
        0
176
     1
 62
   257
176
     1
 40
1.0
176
     1
 90
        1
176
     1
 90
        6
176
     1
 90
        2
176
     1
 62
     7
176
     1
 90
        5
176
     1
 90
        0
176
     1
 90
        0
176
     1
290
     0
176
     1
 90
       13
176
     1
 40
0.0
176
     1
 90
        0
176
     1
290
     0
176
     1
290
     1
176
     1
290
     1
176
     1
290
     0
176
     1
290
     0
176
     1
290
     0
176
     1
290
     0
176
     1
290
     0
176
     1
290
     0
176
     1
 90
       50
176
     1
 40
0.0
176
     1
 40
1.0
176
     1
 90
        0
176
     1
 62
    18
420
        0
176
     1
 90
       50
176
     1
 90
        3
176
     1
 62
     5
420
      255
176
     1
290
     0
176
     1
 90
       50
176
     1
 90
       50
176
     1
 90
       50
176
     1
290
     0
176
     1
 90
       50
176
     1
 62
   256
176
     0
 40
1.0
176
     0
 90
        2
176
     1
  1
strokes_ogs.tif
176
     1
290
     0
176
     1
 40
1.0
176
     1
 40
1.0
176
     1
  0
VISUALSTYLE
  5
31
102
{ACAD_REACTORS
330
29
102
}
330
29
100
AcDbVisualStyle
  2
Hidden
 70
     6
177
     3
291
     0
 70
    58
 90
        1
176
     1
 90
        2
176
     1
 90
        2
176
     1
 90
        0
176
     1
 40
0.6
176
     1
 40
30.0
176
     1
 62
     7
420
 16777215
176
     1
 90
        2
176
     1
 90
        2
176
     1
 62
     7
176
     1
 62
   257
176
     1
 90
        2
176
     1
 90
        1
176
     1
 40
40.0
176
     1
 90
        0
176
     1
 62
   257
176
     1
 40
1.0
176
     1
 90
        1
176
     1
 90
        6
176
     1
 90
        2
176
     1
 62
     7
176
     1
 90
        3
176
     1
 90
        0
176
     1
 90
        0
176
     1
290
     0
176
     1
 90
        1
176
     1
 40
0.0
176
     1
 90
        0
176
     1
290
     0
176
     1
290
     1
176
     1
290
     1
176
     1
290
     0
176
     1
290
     0
176
     1
290
     0
176
     1
290
     0
176
     1
290
     0
176
     1
290
     0
176
     1
 90
       50
176
     1
 40
0.0
176
     1
 40
1.0
176
     1
 90
        0
176
     1
 62
    18
420
        0
176
     1
 90
       50
176
     1
 90
        3
176
     1
 62
     5
420
      255
176
     1
290
     0
176
     1
 90
       50
176
     1
 90
       50
176
     1
 90
       50
176
     1
290
     0
176
     1
 90
       50
176
     1
 62
   256
176
     0
 40
1.0
176
     0
 90
        2
176
     1
  1
strokes_ogs.tif
176
     1
290
     0
176
     1
 40
1.0
176
     1
 40
1.0
176
     1
  0
VISUALSTYLE
  5
3F
102
{ACAD_REACTORS
330
29
102
}
330
29
100
AcDbVisualStyle
  2
JitterOff
 70
    20
177
     3
291
     1
 70
    58
 90
        2
176
     0
 90
        2
176
     0
 90
        0
176
     0
 90
        0
176
     0
 40
0.6
176
     0
 40
30.0
176
     0
 62
     7
420
 16777215
176
     0
 90
        1
176
     0
 90
        4
176
     0
 62
     7
176
     0
 62
   257
176
     0
 90
        1
176
     0
 90
        1
176
     0
 40
1.0
176
     0
 90
       10
176
     2
 62
     7
176
     0
 40
1.0
176
     0
 90
        1
176
     0
 90
        6
176
     0
 90
        2
176
     0
 62
     7
176
     0
 90
        5
176
     0
 90
        0
176
     0
 90
        0
176
     0
290
     0
176
     0
 90
        1
176
     0
 40
0.0
176
     0
 90
        0
176
     0
290
     0
176
     0
290
     1
176
     0
290
     1
176
     0
290
     0
176
     0
290
     0
176
     0
290
     0
176
     0
290
     0
176
     0
290
     0
176
     0
290
     0
176
     0
 90
       50
176
     0
 40
0.0
176
     0
 40
1.0
176
     0
 90
        0
176
     0
 62
    18
420
        0
176
     0
 90
       50
176
     0
 90
        3
176
     0
 62
     5
420
      255
176
     0
290
     0
176
     0
 90
       50
176
     0
 90
       50
176
     0
 90
       50
176
     0
290
     0
176
     0
 90
       50
176
     0
 62
   256
176
     0
 40
1.0
176
     0
 90
        2
176
     0
  1
strokes_ogs.tif
176
     0
290
     0
176
     0
 40
1.0
176
     0
 40
1.0
176
     0
  0
VISUALSTYLE
  5
37
102
{ACAD_REACTORS
330
29
102
}
330
29
100
AcDbVisualStyle
  2
Linepattern
 70
    14
177
     3
291
     1
 70
    58
 90
        2
176
     1
 90
        2
176
     1
 90
        0
176
     1
 90
        0
176
     1
 40
0.6
176
     1
 40
30.0
176
     1
 62
     7
420
 16777215
176
     1
 90
        1
176
     1
 90
        4
176
     1
 62
     7
176
     1
 62
   257
176
     1
 90
        7
176
     1
 90
        7
176
     1
 40
1.0
176
     1
 90
        8
176
     1
 62
     7
176
     1
 40
1.0
176
     1
 90
        1
176
     1
 90
        6
176
     1
 90
        2
176
     1
 62
     7
176
     1
 90
        5
176
     1
 90
        0
176
     1
 90
        0
176
     1
290
     0
176
     1
 90
        1
176
     1
 40
0.0
176
     1
 90
        0
176
     1
290
     0
176
     1
290
     1
176
     1
290
     1
176
     1
290
     0
176
     1
290
     0
176
     1
290
     0
176
     1
290
     0
176
     1
290
     0
176
     1
290
     0
176
     1
 90
       50
176
     1
 40
0.0
176
     1
 40
1.0
176
     1
 90
        0
176
     1
 62
    18
420
        0
176
     1
 90
       50
176
     1
 90
        3
176
     1
 62
     5
420
      255
176
     1
290
     0
176
     1
 90
       50
176
     1
 90
       50
176
     1
 90
       50
176
     1
290
     0
176
     1
 90
       50
176
     1
 62
   256
176
     0
 40
1.0
176
     0
 90
        2
176
     1
  1
strokes_ogs.tif
176
     1
290
     0
176
     1
 40
1.0
176
     1
 40
1.0
176
     1
  0
VISUALSTYLE
  5
40
102
{ACAD_REACTORS
330
29
102
}
330
29
100
AcDbVisualStyle
  2
OverhangOff
 70
    21
177
     3
291
     1
 70
    58
 90
        2
176
     0
 90
        2
176
     0
 90
        0
176
     0
 90
        0
176
     0
 40
0.6
176
     0
 40
30.0
176
     0
 62
     7
420
 16777215
176
     0
 90
        1
176
     0
 90
        4
176
     0
 62
     7
176
     0
 62
   257
176
     0
 90
        1
176
     0
 90
        1
176
     0
 40
1.0
176
     0
 90
        9
176
     2
 62
     7
176
     0
 40
1.0
176
     0
 90
        1
176
     0
 90
        6
176
     0
 90
        2
176
     0
 62
     7
176
     0
 90
        5
176
     0
 90
        0
176
     0
 90
        0
176
     0
290
     0
176
     0
 90
        1
176
     0
 40
0.0
176
     0
 90
        0
176
     0
290
     0
176
     0
290
     1
176
     0
290
     1
176
     0
290
     0
176
     0
290
     0
176
     0
290
     0
176
     0
290
     0
176
     0
290
     0
176
     0
290
     0
176
     0
 90
       50
176
     0
 40
0.0
176
     0
 40
1.0
176
     0
 90
        0
176
     0
 62
    18
420
        0
176
     0
 90
       50
176
     0
 90
        3
176
     0
 62
     5
420
      255
176
     0
290
     0
176
     0
 90
       50
176
     0
 90
       50
176
     0
 90
       50
176
     0
290
     0
176
     0
 90
       50
176
     0
 62
   256
176
     0
 40
1.0
176
     0
 90
        2
176
     0
  1
strokes_ogs.tif
176
     0
290
     0
176
     0
 40
1.0
176
     0
 40
1.0
176
     0
  0
VISUALSTYLE
  5
33
102
{ACAD_REACTORS
330
29
102
}
330
29
100
AcDbVisualStyle
  2
Realistic
 70
     8
177
     3
291
     0
 70
    58
 90
        2
176
     1
 90
        3
176
     1
 90
        0
176
     1
 90
        2
176
     1
 40
0.6
176
     1
 40
30.0
176
     1
 62
     7
420
 16777215
176
     1
 90
        0
176
     1
 90
        0
176
     1
 62
     7
176
     1
 62
   257
176
     1
 90
        1
176
     1
 90
        1
176
     1
 40
1.0
176
     1
 90
        8
176
     1
 62
   257
176
     1
 40
1.0
176
     1
 90
        1
176
     1
 90
        6
176
     1
 90
        2
176
     1
 62
     7
176
     1
 90
        3
176
     1
 90
        0
176
     1
 90
        0
176
     1
290
     0
176
     1
 90
       13
176
     1
 40
0.0
176
     1
 90
        0
176
     1
290
     0
176
     1
290
     1
176
     1
290
     1
176
     1
290
     0
176
     1
290
     0
176
     1
290
     0
176
     1
290
     0
176
     1
290
     0
176
     1
290
     0
176
     1
 90
       50
176
     1
 40
0.0
176
     1
 40
1.0
176
     1
 90
        0
176
     1
 62
    18
420
        0
176
     1
 90
       50
176
     1
 90
        3
176
     1
 62
     5
420
      255
176
     1
290
     0
176
     1
 90
       50
176
     1
 90
       50
176
     1
 90
       50
176
     1
290
     0
176
     1
 90
       50
176
     1
 62
   256
176
     0
 40
1.0
176
     0
 90
        2
176
     1
  1
strokes_ogs.tif
176
     1
290
     0
176
     1
 40
1.0
176
     1
 40
1.0
176
     1
  0
VISUALSTYLE
  5
3E
102
{ACAD_REACTORS
330
29
102
}
330
29
100
AcDbVisualStyle
  2
Shaded
 70
    27
177
     3
291
     0
 70
    58
 90
        2
176
     1
 90
        2
176
     1
 90
        1
176
     1
 90
        2
176
     1
 40
0.6
176
     1
 40
30.0
176
     1
 62
     7
420
 16777215
176
     1
 90
        0
176
     1
 90
        4
176
     1
 62
     7
176
     1
 62
   257
176
     1
 90
        1
176
     1
 90
        1
176
     1
 40
1.0
176
     1
 90
        8
176
     1
 62
   257
176
     1
 40
1.0
176
     1
 90
        1
176
     1
 90
        6
176
     1
 90
        2
176
     1
 62
     8
420
  7895160
176
     1
 90
        3
176
     1
 90
        0
176
     1
 90
        0
176
     1
290
     0
176
     1
 90
        5
176
     1
 40
0.0
176
     1
 90
        0
176
     1
290
     0
176
     1
290
     1
176
     1
290
     1
176
     1
290
     0
176
     1
290
     0
176
     1
290
     0
176
     1
290
     0
176
     1
290
     0
176
     1
290
     0
176
     1
 90
       50
176
     1
 40
0.0
176
     1
 40
1.0
176
     1
 90
        0
176
     1
 62
    18
420
        0
176
     1
 90
       50
176
     1
 90
        3
176
     1
 62
     5
420
      255
176
     1
290
     0
176
     1
 90
       50
176
     1
 90
       50
176
     1
 90
       50
176
     1
290
     0
176
     1
 90
       50
176
     1
 62
   256
176
     0
 40
1.0
176
     0
 90
        2
176
     1
  1
strokes_ogs.tif
176
     1
290
     0
176
     1
 40
1.0
176
     1
 40
1.0
176
     1
  0
VISUALSTYLE
  5
3D
102
{ACAD_REACTORS
330
29
102
}
330
29
100
AcDbVisualStyle
  2
Shaded with edges
 70
    26
177
     3
291
     0
 70
    58
 90
        2
176
     1
 90
        2
176
     1
 90
        1
176
     1
 90
        2
176
     1
 40
0.6
176
     1
 40
30.0
176
     1
 62
     7
420
 16777215
176
     1
 90
        1
176
     1
 90
        2
176
     1
 62
     7
176
     1
 62
   257
176
     1
 90
        2
176
     1
 90
        1
176
     1
 40
1.0
176
     1
 90
        8
176
     1
 62
   257
176
     1
 40
1.0
176
     1
 90
        1
176
     1
 90
        6
176
     1
 90
        2
176
     1
 62
     7
176
     1
 90
        3
176
     1
 90
        0
176
     1
 90
        0
176
     1
290
     0
176
     1
 90
        5
176
     1
 40
0.0
176
     1
 90
        0
176
     1
290
     0
176
     1
290
     1
176
     1
290
     1
176
     1
290
     0
176
     1
290
     0
176
     1
290
     0
176
     1
290
     0
176
     1
290
     0
176
     1
290
     0
176
     1
 90
       50
176
     1
 40
0.0
176
     1
 40
1.0
176
     1
 90
        0
176
     1
 62
    18
420
        0
176
     1
 90
       50
176
     1
 90
        3
176
     1
 62
     5
420
      255
176
     1
290
     0
176
     1
 90
       50
176
     1
 90
       50
176
     1
 90
       50
176
     1
290
     0
176
     1
 90
       50
176
     1
 62
   256
176
     0
 40
1.0
176
     0
 90
        2
176
     1
  1
strokes_ogs.tif
176
     1
290
     0
176
     1
 40
1.0
176
     1
 40
1.0
176
     1
  0
VISUALSTYLE
  5
3A
102
{ACAD_REACTORS
330
29
102
}
330
29
100
AcDbVisualStyle
  2
Shades of Gray
 70
    23
177
     3
291
     0
 70
    58
 90
        2
176
     1
 90
        2
176
     1
 90
        3
176
     1
 90
        0
176
     1
 40
0.6
176
     1
 40
30.0
176
     1
 62
     7
420
 16777215
176
     1
 90
        2
176
     1
 90
        2
176
     1
 62
     7
176
     1
 62
     7
176
     1
 90
        1
176
     1
 90
        1
176
     1
 40
40.0
176
     1
 90
        8
176
     1
 62
     7
176
     1
 40
1.0
176
     1
 90
        1
176
     1
 90
        6
176
     1
 90
        2
176
     1
 62
     7
176
     1
 90
        3
176
     1
 90
        0
176
     1
 90
        0
176
     1
290
     0
176
     1
 90
        1
176
     1
 40
0.0
176
     1
 90
        0
176
     1
290
     0
176
     1
290
     1
176
     1
290
     1
176
     1
290
     0
176
     1
290
     0
176
     1
290
     0
176
     1
290
     0
176
     1
290
     0
176
     1
290
     0
176
     1
 90
       50
176
     1
 40
0.0
176
     1
 40
1.0
176
     1
 90
        0
176
     1
 62
    18
420
        0
176
     1
 90
       50
176
     1
 90
        3
176
     1
 62
     5
420
      255
176
     1
290
     0
176
     1
 90
       50
176
     1
 90
       50
176
     1
 90
       50
176
     1
290
     0
176
     1
 90
       50
176
     1
 62
   256
176
     0
 40
1.0
176
     0
 90
        2
176
     1
  1
strokes_ogs.tif
176
     1
290
     0
176
     1
 40
1.0
176
     1
 40
1.0
176
     1
  0
VISUALSTYLE
  5
3B
102
{ACAD_REACTORS
330
29
102
}
330
29
100
AcDbVisualStyle
  2
Sketchy
 70
    24
177
     3
291
     0
 70
    58
 90
        1
176
     1
 90
        2
176
     1
 90
        2
176
     1
 90
        0
176
     1
 40
0.6
176
     1
 40
30.0
176
     1
 62
     7
420
 16777215
176
     1
 90
        2
176
     1
 90
        2
176
     1
 62
     7
176
     1
 62
     7
176
     1
 90
        1
176
     1
 90
        1
176
     1
 40
40.0
176
     1
 90
       11
176
     1
 62
     7
176
     1
 40
1.0
176
     1
 90
        1
176
     1
 90
        6
176
     1
 90
        2
176
     1
 62
     7
176
     1
 90
        6
176
     1
 90
        0
176
     1
 90
        0
176
     1
290
     0
176
     1
 90
        1
176
     1
 40
0.0
176
     1
 90
        0
176
     1
290
     0
176
     1
290
     1
176
     1
290
     1
176
     1
290
     0
176
     1
290
     0
176
     1
290
     0
176
     1
290
     0
176
     1
290
     0
176
     1
290
     0
176
     1
 90
       50
176
     1
 40
0.0
176
     1
 40
1.0
176
     1
 90
        0
176
     1
 62
    18
420
        0
176
     1
 90
       50
176
     1
 90
        3
176
     1
 62
     5
420
      255
176
     1
290
     0
176
     1
 90
       50
176
     1
 90
       50
176
     1
 90
       50
176
     1
290
     0
176
     1
 90
       50
176
     1
 62
   256
176
     0
 40
1.0
176
     0
 90
        2
176
     1
  1
strokes_ogs.tif
176
     1
290
     0
176
     1
 40
1.0
176
     1
 40
1.0
176
     1
  0
VISUALSTYLE
  5
36
102
{ACAD_REACTORS
330
29
102
}
330
29
100
AcDbVisualStyle
  2
Thicken
 70
    13
177
     3
291
     1
 70
    58
 90
        2
176
     1
 90
        2
176
     1
 90
        0
176
     1
 90
        0
176
     1
 40
0.6
176
     1
 40
30.0
176
     1
 62
     7
420
 16777215
176
     1
 90
        1
176
     1
 90
        4
176
     1
 62
     7
176
     1
 62
   257
176
     1
 90
        1
176
     1
 90
        1
176
     1
 40
1.0
176
     1
 90
       12
176
     1
 62
     7
176
     1
 40
1.0
176
     1
 90
        1
176
     1
 90
        6
176
     1
 90
        2
176
     1
 62
     7
176
     1
 90
        5
176
     1
 90
        0
176
     1
 90
        0
176
     1
290
     0
176
     1
 90
        1
176
     1
 40
0.0
176
     1
 90
        0
176
     1
290
     0
176
     1
290
     1
176
     1
290
     1
176
     1
290
     0
176
     1
290
     0
176
     1
290
     0
176
     1
290
     0
176
     1
290
     0
176
     1
290
     0
176
     1
 90
       50
176
     1
 40
0.0
176
     1
 40
1.0
176
     1
 90
        0
176
     1
 62
    18
420
        0
176
     1
 90
       50
176
     1
 90
        3
176
     1
 62
     5
420
      255
176
     1
290
     0
176
     1
 90
       50
176
     1
 90
       50
176
     1
 90
       50
176
     1
290
     0
176
     1
 90
       50
176
     1
 62
   256
176
     0
 40
1.0
176
     0
 90
        2
176
     1
  1
strokes_ogs.tif
176
     1
290
     0
176
     1
 40
1.0
176
     1
 40
1.0
176
     1
  0
VISUALSTYLE
  5
30
102
{ACAD_REACTORS
330
29
102
}
330
29
100
AcDbVisualStyle
  2
Wireframe
 70
     5
177
     3
291
     0
 70
    58
 90
        0
176
     1
 90
        2
176
     1
 90
        0
176
     1
 90
        0
176
     1
 40
0.6
176
     1
 40
30.0
176
     1
 62
     7
420
 16777215
176
     1
 90
        1
176
     1
 90
        4
176
     1
 62
     7
176
     1
 62
   257
176
     1
 90
        1
176
     1
 90
        1
176
     1
 40
1.0
176
     1
 90
        0
176
     1
 62
   257
176
     1
 40
1.0
176
     1
 90
        1
176
     1
 90
        6
176
     1
 90
        2
176
     1
 62
     7
176
     1
 90
        3
176
     1
 90
        0
176
     1
 90
        0
176
     1
290
     0
176
     1
 90
        1
176
     1
 40
0.0
176
     1
 90
        0
176
     1
290
     0
176
     1
290
     1
176
     1
290
     1
176
     1
290
     0
176
     1
290
     0
176
     1
290
     0
176
     1
290
     0
176
     1
290
     0
176
     1
290
     0
176
     1
 90
       50
176
     1
 40
0.0
176
     1
 40
1.0
176
     1
 90
        0
176
     1
 62
    18
420
        0
176
     1
 90
       50
176
     1
 90
        3
176
     1
 62
     5
420
      255
176
     1
290
     0
176
     1
 90
       50
176
     1
 90
       50
176
     1
 90
       50
176
     1
290
     0
176
     1
 90
       50
176
     1
 62
   256
176
     0
 40
1.0
176
     0
 90
        2
176
     1
  1
strokes_ogs.tif
176
     1
290
     0
176
     1
 40
1.0
176
     1
 40
1.0
176
     1
  0
VISUALSTYLE
  5
3C
102
{ACAD_REACTORS
330
29
102
}
330
29
100
AcDbVisualStyle
  2
X-Ray
 70
    25
177
     3
291
     0
 70
    58
 90
        2
176
     1
 90
        2
176
     1
 90
        1
176
     1
 90
        1
176
     1
 40
0.5
176
     1
 40
30.0
176
     1
 62
     7
420
 16777215
176
     1
 90
        1
176
     1
 90
        0
176
     1
 62
     7
176
     1
 62
   257
176
     1
 90
        1
176
     1
 90
        1
176
     1
 40
1.0
176
     1
 90
        8
176
     1
 62
     7
176
     1
 40
1.0
176
     1
 90
        1
176
     1
 90
        6
176
     1
 90
        2
176
     1
 62
     7
176
     1
 90
        3
176
     1
 90
        0
176
     1
 90
        0
176
     1
290
     0
176
     1
 90
       13
176
     1
 40
0.0
176
     1
 90
        0
176
     1
290
     0
176
     1
290
     1
176
     1
290
     1
176
     1
290
     0
176
     1
290
     0
176
     1
290
     0
176
     1
290
     0
176
     1
290
     0
176
     1
290
     0
176
     1
 90
       50
176
     1
 40
0.0
176
     1
 40
1.0
176
     1
 90
        0
176
     1
 62
    18
420
        0
176
     1
 90
       50
176
     1
 90
        3
176
     1
 62
     5
420
      255
176
     1
290
     0
176
     1
 90
       50
176
     1
 90
       50
176
     1
 90
       50
176
     1
290
     0
176
     1
 90
       50
176
     1
 62
   256
176
     0
 40
1.0
176
     0
 90
        2
176
     1
  1
strokes_ogs.tif
176
     1
290
     0
176
     1
 40
1.0
176
     1
 40
1.0
176
     1
  0
DICTIONARYVAR
  5
80
102
{ACAD_REACTORS
330
7B
102
}
330
7B
100
DictionaryVariables
280
     0
  1
1:1
  0
DICTIONARYVAR
  5
7D
102
{ACAD_REACTORS
330
7B
102
}
330
7B
100
DictionaryVariables
280
     0
  1
STANDARD
  0
DICTIONARYVAR
  5
7C
102
{ACAD_REACTORS
330
7B
102
}
330
7B
100
DictionaryVariables
280
     0
  1
STANDARD
  0
DICTIONARYVAR
  5
7E
102
{ACAD_REACTORS
330
7B
102
}
330
7B
100
DictionaryVariables
280
     0
  1
Imperial24
  0
DICTIONARYVAR
  5
7F
102
{ACAD_REACTORS
330
7B
102
}
330
7B
100
DictionaryVariables
280
     0
  1
Imperial24
  0
DICTIONARY
  5
1A
330
19
100
AcDbDictionary
280
     1
281
     1
  3
BUMPTILE
360
1C
  3
DIFFUSETILE
360
1B
  3
OPACITYTILE
360
1F
  3
REFLECTIONTILE
360
1E
  3
REFRACTIONTILE
360
20
  3
SPECULARTILE
360
1D
  0
DICTIONARY
  5
12
330
11
100
AcDbDictionary
280
     1
281
     1
  3
BUMPTILE
360
14
  3
DIFFUSETILE
360
13
  3
OPACITYTILE
360
17
  3
REFLECTIONTILE
360
16
  3
REFRACTIONTILE
360
18
  3
SPECULARTILE
360
15
  0
DICTIONARY
  5
22
330
21
100
AcDbDictionary
280
     1
281
     1
  3
BUMPTILE
360
24
  3
DIFFUSETILE
360
23
  3
OPACITYTILE
360
27
  3
REFLECTIONTILE
360
26
  3
REFRACTIONTILE
360
28
  3
SPECULARTILE
360
25
  0
DICTIONARY
  5
81
330
65
100
AcDbDictionary
280
     1
281
     1
  3
ACAD_ROUNDTRIP_2008_TABLESTYLE_CELLSTYLEMAP
360
82
  0
XRECORD
  5
1C
102
{ACAD_REACTORS
330
1A
102
}
330
1A
100
AcDbXrecord
280
     1
270
     1
271
     1
  0
XRECORD
  5
1B
102
{ACAD_REACTORS
330
1A
102
}
330
1A
100
AcDbXrecord
280
     1
270
     1
271
     1
  0
XRECORD
  5
1F
102
{ACAD_REACTORS
330
1A
102
}
330
1A
100
AcDbXrecord
280
     1
270
     1
271
     1
  0
XRECORD
  5
1E
102
{ACAD_REACTORS
330
1A
102
}
330
1A
100
AcDbXrecord
280
     1
270
     1
271
     1
  0
XRECORD
  5
20
102
{ACAD_REACTORS
330
1A
102
}
330
1A
100
AcDbXrecord
280
     1
270
     1
271
     1
  0
XRECORD
  5
1D
102
{ACAD_REACTORS
330
1A
102
}
330
1A
100
AcDbXrecord
280
     1
270
     1
271
     1
  0
XRECORD
  5
14
102
{ACAD_REACTORS
330
12
102
}
330
12
100
AcDbXrecord
280
     1
270
     1
271
     1
  0
XRECORD
  5
13
102
{ACAD_REACTORS
330
12
102
}
330
12
100
AcDbXrecord
280
     1
270
     1
271
     1
  0
XRECORD
  5
17
102
{ACAD_REACTORS
330
12
102
}
330
12
100
AcDbXrecord
280
     1
270
     1
271
     1
  0
XRECORD
  5
16
102
{ACAD_REACTORS
330
12
102
}
330
12
100
AcDbXrecord
280
     1
270
     1
271
     1
  0
XRECORD
  5
18
102
{ACAD_REACTORS
330
12
102
}
330
12
100
AcDbXrecord
280
     1
270
     1
271
     1
  0
XRECORD
  5
15
102
{ACAD_REACTORS
330
12
102
}
330
12
100
AcDbXrecord
280
     1
270
     1
271
     1
  0
XRECORD
  5
24
102
{ACAD_REACTORS
330
22
102
}
330
22
100
AcDbXrecord
280
     1
270
     1
271
     1
  0
XRECORD
  5
23
102
{ACAD_REACTORS
330
22
102
}
330
22
100
AcDbXrecord
280
     1
270
     1
271
     1
  0
XRECORD
  5
27
102
{ACAD_REACTORS
330
22
102
}
330
22
100
AcDbXrecord
280
     1
270
     1
271
     1
  0
XRECORD
  5
26
102
{ACAD_REACTORS
330
22
102
}
330
22
100
AcDbXrecord
280
     1
270
     1
271
     1
  0
XRECORD
  5
28
102
{ACAD_REACTORS
330
22
102
}
330
22
100
AcDbXrecord
280
     1
270
     1
271
     1
  0
XRECORD
  5
25
102
{ACAD_REACTORS
330
22
102
}
330
22
100
AcDbXrecord
280
     1
270
     1
271
     1
  0
CELLSTYLEMAP
  5
82
102
{ACAD_REACTORS
330
81
102
}
330
81
100
AcDbCellStyleMap
 90
        3
300
CELLSTYLE
  1
TABLEFORMAT_BEGIN
 90
        5
170
     1
 91
        0
 92
    32768
 62
   257
 93
        1
300
CONTENTFORMAT
  1
CONTENTFORMAT_BEGIN
 90
        0
 91
        0
 92
      512
 93
        0
300

 40
0.0
140
1.0
 94
        5
 62
     0
340
55
144
0.25
309
CONTENTFORMAT_END
171
     0
 94
        0
309
TABLEFORMAT_END
  1
CELLSTYLE_BEGIN
 90
        1
 91
        1
300
_TITLE
309
CELLSTYLE_END
300
CELLSTYLE
  1
TABLEFORMAT_BEGIN
 90
        5
170
     1
 91
        0
 92
        0
 62
   257
 93
        1
300
CONTENTFORMAT
  1
CONTENTFORMAT_BEGIN
 90
        0
 91
        0
 92
      512
 93
        0
300

 40
0.0
140
1.0
 94
        5
 62
     0
340
55
144
0.18
309
CONTENTFORMAT_END
171
     0
 94
        0
309
TABLEFORMAT_END
  1
CELLSTYLE_BEGIN
 90
        2
 91
        1
300
_HEADER
309
CELLSTYLE_END
300
CELLSTYLE
  1
TABLEFORMAT_BEGIN
 90
        5
170
     1
 91
        0
 92
        0
 62
   257
 93
        1
300
CONTENTFORMAT
  1
CONTENTFORMAT_BEGIN
 90
        0
 91
        0
 92
      512
 93
        0
300

 40
0.0
140
1.0
 94
        2
 62
     0
340
55
144
0.18
309
CONTENTFORMAT_END
171
     0
 94
        0
309
TABLEFORMAT_END
  1
CELLSTYLE_BEGIN
 90
        3
 91
        2
300
_DATA
309
CELLSTYLE_END
  0
ENDSEC
  0
EOF
